<svg xmlns="http://www.w3.org/2000/svg" xmlns:xlink="http://www.w3.org/1999/xlink" width="7680" zoomAndPan="magnify" viewBox="0 0 5760 2441.249966" height="3255" preserveAspectRatio="xMidYMid meet" version="1.0"><defs><g/><clipPath id="1a04f69398"><path d="M 1750 51 L 4010 51 L 4010 2311 L 1750 2311 Z M 1750 51 " clip-rule="nonzero"/></clipPath><clipPath id="6f9473e3fc"><path d="M 1866.210938 1677.816406 C 2140.75 2237.929688 2817.042969 2468.984375 3377.15625 2195.09375 C 3937.269531 1921.203125 4168.324219 1244.261719 3894.433594 684.148438 C 3619.246094 124.035156 2942.953125 -107.671875 2382.839844 166.871094 C 1823.375 441.410156 1591.671875 1117.699219 1866.210938 1677.816406 Z M 1866.210938 1677.816406 " clip-rule="evenodd"/></clipPath><linearGradient x1="258.60148" gradientTransform="matrix(0.184, 0, 0, -0.184, 1315.546693, -334.454544)" y1="-5262.511543" x2="16883.183323" gradientUnits="userSpaceOnUse" y2="-11256.676772" id="fdd7a04be1"><stop stop-opacity="1" stop-color="rgb(7.798767%, 63.899231%, 99.598694%)" offset="0"/><stop stop-opacity="1" stop-color="rgb(7.798767%, 63.899231%, 99.598694%)" offset="0.125"/><stop stop-opacity="1" stop-color="rgb(7.798767%, 63.899231%, 99.598694%)" offset="0.140625"/><stop stop-opacity="1" stop-color="rgb(7.798767%, 63.899231%, 99.598694%)" offset="0.148438"/><stop stop-opacity="1" stop-color="rgb(7.878113%, 63.656616%, 99.401855%)" offset="0.152344"/><stop stop-opacity="1" stop-color="rgb(7.957458%, 63.414001%, 99.205017%)" offset="0.15625"/><stop stop-opacity="1" stop-color="rgb(8.093262%, 62.995911%, 98.86322%)" offset="0.160156"/><stop stop-opacity="1" stop-color="rgb(8.230591%, 62.57782%, 98.522949%)" offset="0.164062"/><stop stop-opacity="1" stop-color="rgb(8.36792%, 62.158203%, 98.182678%)" offset="0.167969"/><stop stop-opacity="1" stop-color="rgb(8.505249%, 61.740112%, 97.842407%)" offset="0.171875"/><stop stop-opacity="1" stop-color="rgb(8.641052%, 61.322021%, 97.502136%)" offset="0.175781"/><stop stop-opacity="1" stop-color="rgb(8.778381%, 60.903931%, 97.161865%)" offset="0.179687"/><stop stop-opacity="1" stop-color="rgb(8.914185%, 60.48584%, 96.821594%)" offset="0.183594"/><stop stop-opacity="1" stop-color="rgb(9.051514%, 60.067749%, 96.481323%)" offset="0.1875"/><stop stop-opacity="1" stop-color="rgb(9.187317%, 59.648132%, 96.141052%)" offset="0.191406"/><stop stop-opacity="1" stop-color="rgb(9.324646%, 59.230042%, 95.800781%)" offset="0.195312"/><stop stop-opacity="1" stop-color="rgb(9.460449%, 58.811951%, 95.458984%)" offset="0.199219"/><stop stop-opacity="1" stop-color="rgb(9.597778%, 58.39386%, 95.118713%)" offset="0.203125"/><stop stop-opacity="1" stop-color="rgb(9.735107%, 57.974243%, 94.778442%)" offset="0.207031"/><stop stop-opacity="1" stop-color="rgb(9.872437%, 57.556152%, 94.438171%)" offset="0.210938"/><stop stop-opacity="1" stop-color="rgb(10.00824%, 57.138062%, 94.0979%)" offset="0.214844"/><stop stop-opacity="1" stop-color="rgb(10.145569%, 56.719971%, 93.757629%)" offset="0.21875"/><stop stop-opacity="1" stop-color="rgb(10.281372%, 56.30188%, 93.417358%)" offset="0.222656"/><stop stop-opacity="1" stop-color="rgb(10.418701%, 55.883789%, 93.077087%)" offset="0.226562"/><stop stop-opacity="1" stop-color="rgb(10.554504%, 55.464172%, 92.735291%)" offset="0.230469"/><stop stop-opacity="1" stop-color="rgb(10.691833%, 55.046082%, 92.39502%)" offset="0.234375"/><stop stop-opacity="1" stop-color="rgb(10.827637%, 54.627991%, 92.054749%)" offset="0.238281"/><stop stop-opacity="1" stop-color="rgb(10.964966%, 54.2099%, 91.714478%)" offset="0.242187"/><stop stop-opacity="1" stop-color="rgb(11.102295%, 53.791809%, 91.374207%)" offset="0.246094"/><stop stop-opacity="1" stop-color="rgb(11.239624%, 53.373718%, 91.033936%)" offset="0.25"/><stop stop-opacity="1" stop-color="rgb(11.375427%, 52.954102%, 90.693665%)" offset="0.253906"/><stop stop-opacity="1" stop-color="rgb(11.512756%, 52.536011%, 90.353394%)" offset="0.257812"/><stop stop-opacity="1" stop-color="rgb(11.64856%, 52.11792%, 90.013123%)" offset="0.261719"/><stop stop-opacity="1" stop-color="rgb(11.785889%, 51.699829%, 89.672852%)" offset="0.265625"/><stop stop-opacity="1" stop-color="rgb(11.921692%, 51.281738%, 89.331055%)" offset="0.269531"/><stop stop-opacity="1" stop-color="rgb(12.059021%, 50.863647%, 88.990784%)" offset="0.273438"/><stop stop-opacity="1" stop-color="rgb(12.194824%, 50.444031%, 88.650513%)" offset="0.277344"/><stop stop-opacity="1" stop-color="rgb(12.332153%, 50.02594%, 88.310242%)" offset="0.28125"/><stop stop-opacity="1" stop-color="rgb(12.469482%, 49.607849%, 87.969971%)" offset="0.285156"/><stop stop-opacity="1" stop-color="rgb(12.606812%, 49.189758%, 87.6297%)" offset="0.289062"/><stop stop-opacity="1" stop-color="rgb(12.742615%, 48.770142%, 87.289429%)" offset="0.292969"/><stop stop-opacity="1" stop-color="rgb(12.879944%, 48.352051%, 86.949158%)" offset="0.296875"/><stop stop-opacity="1" stop-color="rgb(13.015747%, 47.93396%, 86.607361%)" offset="0.300781"/><stop stop-opacity="1" stop-color="rgb(13.153076%, 47.515869%, 86.26709%)" offset="0.304687"/><stop stop-opacity="1" stop-color="rgb(13.288879%, 47.097778%, 85.926819%)" offset="0.308594"/><stop stop-opacity="1" stop-color="rgb(13.426208%, 46.679688%, 85.586548%)" offset="0.3125"/><stop stop-opacity="1" stop-color="rgb(13.563538%, 46.260071%, 85.246277%)" offset="0.316406"/><stop stop-opacity="1" stop-color="rgb(13.700867%, 45.84198%, 84.906006%)" offset="0.320312"/><stop stop-opacity="1" stop-color="rgb(13.83667%, 45.423889%, 84.565735%)" offset="0.324219"/><stop stop-opacity="1" stop-color="rgb(13.973999%, 45.005798%, 84.225464%)" offset="0.328125"/><stop stop-opacity="1" stop-color="rgb(14.109802%, 44.587708%, 83.885193%)" offset="0.332031"/><stop stop-opacity="1" stop-color="rgb(14.247131%, 44.169617%, 83.544922%)" offset="0.335938"/><stop stop-opacity="1" stop-color="rgb(14.382935%, 43.75%, 83.203125%)" offset="0.339844"/><stop stop-opacity="1" stop-color="rgb(14.520264%, 43.331909%, 82.862854%)" offset="0.34375"/><stop stop-opacity="1" stop-color="rgb(14.656067%, 42.913818%, 82.522583%)" offset="0.347656"/><stop stop-opacity="1" stop-color="rgb(14.793396%, 42.495728%, 82.182312%)" offset="0.351562"/><stop stop-opacity="1" stop-color="rgb(14.930725%, 42.077637%, 81.842041%)" offset="0.355469"/><stop stop-opacity="1" stop-color="rgb(15.068054%, 41.659546%, 81.50177%)" offset="0.359375"/><stop stop-opacity="1" stop-color="rgb(15.203857%, 41.239929%, 81.161499%)" offset="0.363281"/><stop stop-opacity="1" stop-color="rgb(15.341187%, 40.821838%, 80.821228%)" offset="0.367188"/><stop stop-opacity="1" stop-color="rgb(15.47699%, 40.403748%, 80.479431%)" offset="0.371094"/><stop stop-opacity="1" stop-color="rgb(15.614319%, 39.985657%, 80.13916%)" offset="0.375"/><stop stop-opacity="1" stop-color="rgb(15.750122%, 39.56604%, 79.798889%)" offset="0.378906"/><stop stop-opacity="1" stop-color="rgb(15.887451%, 39.147949%, 79.458618%)" offset="0.382812"/><stop stop-opacity="1" stop-color="rgb(16.023254%, 38.729858%, 79.118347%)" offset="0.386719"/><stop stop-opacity="1" stop-color="rgb(16.160583%, 38.311768%, 78.778076%)" offset="0.390625"/><stop stop-opacity="1" stop-color="rgb(16.297913%, 37.893677%, 78.437805%)" offset="0.394531"/><stop stop-opacity="1" stop-color="rgb(16.435242%, 37.475586%, 78.097534%)" offset="0.398437"/><stop stop-opacity="1" stop-color="rgb(16.571045%, 37.055969%, 77.757263%)" offset="0.402344"/><stop stop-opacity="1" stop-color="rgb(16.708374%, 36.637878%, 77.416992%)" offset="0.40625"/><stop stop-opacity="1" stop-color="rgb(16.844177%, 36.219788%, 77.075195%)" offset="0.410156"/><stop stop-opacity="1" stop-color="rgb(16.981506%, 35.801697%, 76.734924%)" offset="0.414062"/><stop stop-opacity="1" stop-color="rgb(17.11731%, 35.383606%, 76.394653%)" offset="0.417969"/><stop stop-opacity="1" stop-color="rgb(17.254639%, 34.965515%, 76.054382%)" offset="0.421875"/><stop stop-opacity="1" stop-color="rgb(17.390442%, 34.545898%, 75.714111%)" offset="0.425781"/><stop stop-opacity="1" stop-color="rgb(17.527771%, 34.127808%, 75.37384%)" offset="0.429687"/><stop stop-opacity="1" stop-color="rgb(17.6651%, 33.709717%, 75.033569%)" offset="0.433594"/><stop stop-opacity="1" stop-color="rgb(17.802429%, 33.291626%, 74.693298%)" offset="0.4375"/><stop stop-opacity="1" stop-color="rgb(17.938232%, 32.872009%, 74.351501%)" offset="0.441406"/><stop stop-opacity="1" stop-color="rgb(18.075562%, 32.453918%, 74.01123%)" offset="0.445312"/><stop stop-opacity="1" stop-color="rgb(18.211365%, 32.035828%, 73.670959%)" offset="0.449219"/><stop stop-opacity="1" stop-color="rgb(18.348694%, 31.617737%, 73.330688%)" offset="0.453125"/><stop stop-opacity="1" stop-color="rgb(18.484497%, 31.199646%, 72.990417%)" offset="0.457031"/><stop stop-opacity="1" stop-color="rgb(18.621826%, 30.781555%, 72.650146%)" offset="0.460938"/><stop stop-opacity="1" stop-color="rgb(18.757629%, 30.361938%, 72.309875%)" offset="0.464844"/><stop stop-opacity="1" stop-color="rgb(18.894958%, 29.943848%, 71.969604%)" offset="0.46875"/><stop stop-opacity="1" stop-color="rgb(19.032288%, 29.525757%, 71.629333%)" offset="0.472656"/><stop stop-opacity="1" stop-color="rgb(19.169617%, 29.107666%, 71.289062%)" offset="0.476562"/><stop stop-opacity="1" stop-color="rgb(19.30542%, 28.689575%, 70.947266%)" offset="0.480469"/><stop stop-opacity="1" stop-color="rgb(19.442749%, 28.271484%, 70.606995%)" offset="0.484375"/><stop stop-opacity="1" stop-color="rgb(19.578552%, 27.851868%, 70.266724%)" offset="0.488281"/><stop stop-opacity="1" stop-color="rgb(19.715881%, 27.433777%, 69.926453%)" offset="0.492188"/><stop stop-opacity="1" stop-color="rgb(19.851685%, 27.015686%, 69.586182%)" offset="0.496094"/><stop stop-opacity="1" stop-color="rgb(19.989014%, 26.597595%, 69.245911%)" offset="0.5"/><stop stop-opacity="1" stop-color="rgb(20.124817%, 26.179504%, 68.90564%)" offset="0.503906"/><stop stop-opacity="1" stop-color="rgb(20.262146%, 25.761414%, 68.565369%)" offset="0.507812"/><stop stop-opacity="1" stop-color="rgb(20.399475%, 25.341797%, 68.225098%)" offset="0.511719"/><stop stop-opacity="1" stop-color="rgb(20.536804%, 24.923706%, 67.884827%)" offset="0.515625"/><stop stop-opacity="1" stop-color="rgb(20.672607%, 24.505615%, 67.54303%)" offset="0.519531"/><stop stop-opacity="1" stop-color="rgb(20.809937%, 24.087524%, 67.202759%)" offset="0.523438"/><stop stop-opacity="1" stop-color="rgb(20.94574%, 23.667908%, 66.862488%)" offset="0.527344"/><stop stop-opacity="1" stop-color="rgb(21.083069%, 23.249817%, 66.522217%)" offset="0.53125"/><stop stop-opacity="1" stop-color="rgb(21.218872%, 22.831726%, 66.181946%)" offset="0.535156"/><stop stop-opacity="1" stop-color="rgb(21.356201%, 22.413635%, 65.841675%)" offset="0.539062"/><stop stop-opacity="1" stop-color="rgb(21.492004%, 21.995544%, 65.501404%)" offset="0.542969"/><stop stop-opacity="1" stop-color="rgb(21.629333%, 21.577454%, 65.161133%)" offset="0.546875"/><stop stop-opacity="1" stop-color="rgb(21.766663%, 21.157837%, 64.819336%)" offset="0.550781"/><stop stop-opacity="1" stop-color="rgb(21.903992%, 20.739746%, 64.479065%)" offset="0.554688"/><stop stop-opacity="1" stop-color="rgb(22.039795%, 20.321655%, 64.138794%)" offset="0.558594"/><stop stop-opacity="1" stop-color="rgb(22.177124%, 19.903564%, 63.798523%)" offset="0.5625"/><stop stop-opacity="1" stop-color="rgb(22.312927%, 19.485474%, 63.458252%)" offset="0.566406"/><stop stop-opacity="1" stop-color="rgb(22.450256%, 19.067383%, 63.117981%)" offset="0.570312"/><stop stop-opacity="1" stop-color="rgb(22.58606%, 18.647766%, 62.77771%)" offset="0.574219"/><stop stop-opacity="1" stop-color="rgb(22.723389%, 18.229675%, 62.437439%)" offset="0.578125"/><stop stop-opacity="1" stop-color="rgb(22.859192%, 17.811584%, 62.097168%)" offset="0.582031"/><stop stop-opacity="1" stop-color="rgb(22.996521%, 17.393494%, 61.756897%)" offset="0.585938"/><stop stop-opacity="1" stop-color="rgb(23.13385%, 16.975403%, 61.4151%)" offset="0.589844"/><stop stop-opacity="1" stop-color="rgb(23.271179%, 16.557312%, 61.074829%)" offset="0.59375"/><stop stop-opacity="1" stop-color="rgb(23.406982%, 16.137695%, 60.734558%)" offset="0.597656"/><stop stop-opacity="1" stop-color="rgb(23.544312%, 15.719604%, 60.394287%)" offset="0.601562"/><stop stop-opacity="1" stop-color="rgb(23.680115%, 15.301514%, 60.054016%)" offset="0.605469"/><stop stop-opacity="1" stop-color="rgb(23.817444%, 14.883423%, 59.713745%)" offset="0.609375"/><stop stop-opacity="1" stop-color="rgb(23.953247%, 14.463806%, 59.373474%)" offset="0.613281"/><stop stop-opacity="1" stop-color="rgb(24.090576%, 14.045715%, 59.033203%)" offset="0.617188"/><stop stop-opacity="1" stop-color="rgb(24.226379%, 13.627625%, 58.691406%)" offset="0.621094"/><stop stop-opacity="1" stop-color="rgb(24.363708%, 13.209534%, 58.351135%)" offset="0.625"/><stop stop-opacity="1" stop-color="rgb(24.501038%, 12.791443%, 58.010864%)" offset="0.628906"/><stop stop-opacity="1" stop-color="rgb(24.638367%, 12.373352%, 57.670593%)" offset="0.632812"/><stop stop-opacity="1" stop-color="rgb(24.77417%, 11.953735%, 57.330322%)" offset="0.636719"/><stop stop-opacity="1" stop-color="rgb(24.911499%, 11.535645%, 56.990051%)" offset="0.640625"/><stop stop-opacity="1" stop-color="rgb(25.047302%, 11.117554%, 56.64978%)" offset="0.644531"/><stop stop-opacity="1" stop-color="rgb(25.184631%, 10.699463%, 56.309509%)" offset="0.648438"/><stop stop-opacity="1" stop-color="rgb(25.320435%, 10.281372%, 55.969238%)" offset="0.652344"/><stop stop-opacity="1" stop-color="rgb(25.457764%, 9.863281%, 55.628967%)" offset="0.65625"/><stop stop-opacity="1" stop-color="rgb(25.595093%, 9.443665%, 55.28717%)" offset="0.660156"/><stop stop-opacity="1" stop-color="rgb(25.732422%, 9.025574%, 54.946899%)" offset="0.664062"/><stop stop-opacity="1" stop-color="rgb(25.868225%, 8.607483%, 54.606628%)" offset="0.667969"/><stop stop-opacity="1" stop-color="rgb(26.005554%, 8.189392%, 54.266357%)" offset="0.671875"/><stop stop-opacity="1" stop-color="rgb(26.141357%, 7.771301%, 53.926086%)" offset="0.675781"/><stop stop-opacity="1" stop-color="rgb(26.278687%, 7.35321%, 53.585815%)" offset="0.679688"/><stop stop-opacity="1" stop-color="rgb(26.41449%, 6.933594%, 53.245544%)" offset="0.683594"/><stop stop-opacity="1" stop-color="rgb(26.551819%, 6.515503%, 52.905273%)" offset="0.6875"/><stop stop-opacity="1" stop-color="rgb(26.687622%, 6.097412%, 52.563477%)" offset="0.691406"/><stop stop-opacity="1" stop-color="rgb(26.824951%, 5.679321%, 52.223206%)" offset="0.695312"/><stop stop-opacity="1" stop-color="rgb(26.96228%, 5.259705%, 51.882935%)" offset="0.699219"/><stop stop-opacity="1" stop-color="rgb(27.099609%, 4.841614%, 51.542664%)" offset="0.703125"/><stop stop-opacity="1" stop-color="rgb(27.235413%, 4.423523%, 51.202393%)" offset="0.707031"/><stop stop-opacity="1" stop-color="rgb(27.372742%, 4.005432%, 50.862122%)" offset="0.710938"/><stop stop-opacity="1" stop-color="rgb(27.508545%, 3.587341%, 50.521851%)" offset="0.714844"/><stop stop-opacity="1" stop-color="rgb(27.645874%, 3.16925%, 50.18158%)" offset="0.71875"/><stop stop-opacity="1" stop-color="rgb(27.722168%, 2.934265%, 49.989319%)" offset="0.722656"/><stop stop-opacity="1" stop-color="rgb(27.799988%, 2.69928%, 49.798584%)" offset="0.726562"/><stop stop-opacity="1" stop-color="rgb(27.799988%, 2.69928%, 49.798584%)" offset="0.734375"/><stop stop-opacity="1" stop-color="rgb(27.799988%, 2.69928%, 49.798584%)" offset="0.74543"/><stop stop-opacity="1" stop-color="rgb(27.799988%, 2.69928%, 49.798584%)" offset="0.75"/><stop stop-opacity="1" stop-color="rgb(27.799988%, 2.69928%, 49.798584%)" offset="1"/></linearGradient></defs><g clip-path="url(#1a04f69398)"><g clip-path="url(#6f9473e3fc)"><path fill="url(#fdd7a04be1)" d="M 1591.671875 2440.5 L 1591.671875 0 L 4168.324219 0 L 4168.324219 2440.5 Z M 1591.671875 2440.5 " fill-rule="nonzero"/></g></g><path fill="#6699ff" d="M 2193.324219 284.34375 C 2329.617188 394.03125 2531.46875 495.28125 2797.570312 469.96875 C 3344.054688 419.34375 3474.511719 675.0625 3782.152344 726.335938 L 3923.640625 749.699219 C 3945.058594 801.621094 3962.582031 854.195312 3975.5625 907.414062 C 3922.992188 889.890625 3850.949219 885.347656 3753.59375 908.0625 C 3429.078125 982.054688 3355.089844 623.789062 2945.550781 737.367188 C 2536.011719 850.949219 2228.371094 868.472656 2114.789062 640.664062 C 2080.390625 571.867188 2036.257812 521.242188 1991.472656 483.597656 C 2049.238281 409.609375 2116.738281 342.757812 2193.324219 284.34375 Z M 1866.210938 1677.816406 C 1906.449219 1760.242188 1955.777344 1836.179688 2012.242188 1903.679688 C 2178.394531 1886.152344 2391.925781 1808.917969 2526.925781 1856.296875 C 2697.621094 1916.007812 2956.582031 1964.6875 3170.113281 1973.125 C 3335.617188 1979.613281 3446.601562 2085.40625 3487.492188 2132.785156 C 3621.191406 2047.113281 3732.175781 1937.425781 3816.550781 1811.515625 C 3675.0625 1853.054688 3463.476562 1896.539062 3314.847656 1842.667969 C 3072.761719 1754.402344 2993.578125 1646.660156 2782.644531 1657.695312 C 2572.355469 1669.378906 2455.53125 1743.367188 2230.964844 1663.535156 C 2086.882812 1612.261719 1931.113281 1611.613281 1838.300781 1617.457031 C 1847.390625 1636.925781 1856.476562 1657.046875 1866.210938 1677.816406 Z M 3978.808594 1440.917969 C 3996.980469 1364.980469 4007.363281 1286.449219 4009.3125 1207.917969 C 3934.671875 1212.460938 3781.503906 1204.023438 3608.859375 1153.398438 C 3386.242188 1087.84375 3127.925781 1312.410156 2879.996094 1180.65625 C 2632.066406 1048.902344 2521.730469 1110.5625 2214.089844 1164.429688 C 2029.765625 1196.882812 1861.667969 1124.191406 1757.171875 1059.9375 C 1746.789062 1158.589844 1748.734375 1258.539062 1764.960938 1358.492188 C 1787.027344 1359.789062 1813.640625 1362.386719 1847.390625 1366.28125 C 2001.210938 1383.15625 2203.058594 1548.65625 2430.867188 1462.984375 C 2658.679688 1377.3125 2871.558594 1360.4375 3085.089844 1454.546875 C 3298.621094 1548.65625 3506.3125 1446.109375 3673.761719 1388.996094 C 3784.746094 1351.351562 3908.0625 1401.976562 3978.808594 1440.917969 Z M 3978.808594 1440.917969 " fill-opacity="0.549" fill-rule="evenodd"/><path fill="#00ccff" d="M 2106.351562 2002.980469 C 2206.304688 1973.125 2364.019531 1944.566406 2487.332031 2003.628906 C 2683.339844 2097.738281 2680.746094 2151.609375 2916.992188 2154.203125 C 3075.355469 2156.152344 3206.460938 2205.476562 3275.90625 2237.28125 C 2867.015625 2391.75 2413.34375 2291.796875 2106.351562 2002.980469 Z M 3902.222656 1659.640625 C 3950.898438 1555.148438 3984 1442.867188 3999.578125 1327.988281 C 3981.402344 1325.390625 3959.335938 1321.496094 3932.726562 1317.601562 C 3784.746094 1294.886719 3597.175781 1379.910156 3514.75 1346.160156 C 3432.324219 1311.761719 3364.175781 1315.007812 3170.765625 1348.757812 C 2977.351562 1383.15625 2934.515625 1357.195312 2720.984375 1280.609375 C 2507.453125 1204.023438 2354.28125 1340.320312 2086.234375 1346.160156 C 1936.957031 1349.40625 1823.375 1289.695312 1751.980469 1236.472656 C 1755.226562 1307.867188 1766.261719 1379.910156 1783.785156 1451.304688 C 1857.125 1454.546875 1957.074219 1465.582031 2049.238281 1497.382812 C 2222.527344 1557.09375 2333.511719 1562.9375 2561.324219 1509.066406 C 2789.132812 1455.199219 3042.253906 1531.78125 3164.273438 1588.898438 C 3286.292969 1646.011719 3454.390625 1683.007812 3636.769531 1640.171875 C 3742.558594 1614.859375 3839.265625 1636.925781 3902.222656 1659.640625 Z M 3995.035156 1000.875 C 3987.894531 956.742188 3978.160156 913.257812 3965.828125 869.769531 C 3804.21875 839.265625 3630.925781 886.644531 3487.492188 814.601562 C 3440.113281 791.238281 3408.308594 767.222656 3382.347656 745.15625 C 3177.253906 571.867188 2969.5625 609.507812 2720.335938 653.644531 C 2585.988281 677.65625 2467.214844 699.726562 2354.929688 662.730469 C 2256.925781 630.277344 2164.117188 553.691406 2070.007812 393.382812 C 2035.609375 429.078125 2003.15625 466.722656 1973.949219 506.3125 C 1992.121094 534.222656 2014.839844 569.917969 2043.394531 615.351562 C 2177.097656 825.636719 2216.6875 925.585938 2541.203125 939.867188 C 2787.1875 950.898438 3002.664062 837.96875 3175.308594 844.457031 C 3307.058594 849.652344 3380.402344 945.707031 3499.824219 1000.226562 C 3714.003906 1097.582031 3796.429688 987.894531 3995.035156 1000.875 Z M 3721.792969 427.78125 C 3408.308594 77.304688 2898.820312 -49.257812 2449.039062 137.015625 C 2563.917969 260.980469 2700.863281 318.09375 2859.878906 307.710938 C 2948.144531 303.816406 3027.328125 306.410156 3098.722656 315.5 C 3299.273438 340.160156 3525.785156 483.597656 3721.792969 427.78125 Z M 3721.792969 427.78125 " fill-opacity="0.251" fill-rule="evenodd"/><path fill="#47077f" d="M 3908.0625 712.707031 C 4084.601562 1919.253906 2711.25 2548.164062 1946.691406 1816.058594 C 1985.632812 1873.171875 2031.066406 1928.339844 2081.6875 1978.964844 C 2522.382812 2419.65625 3237.613281 2419.65625 3678.304688 1978.964844 C 4020.996094 1636.925781 4097.582031 1129.382812 3908.0625 712.707031 Z M 3908.0625 712.707031 " fill-opacity="0.2" fill-rule="evenodd"/><g fill="#cb6ce6" fill-opacity="1"><g transform="translate(2128.009076, 1327.707351)"><g><path d="M 320.78125 -183.875 L 320.78125 -112.625 C 312.289062 -73.625 293.71875 -44.109375 265.0625 -24.078125 C 236.40625 -4.046875 204.429688 5.96875 169.140625 5.96875 C 124.835938 5.96875 87.097656 -10.613281 55.921875 -43.78125 C 24.742188 -76.945312 9.15625 -117.007812 9.15625 -163.96875 C 9.15625 -211.726562 24.410156 -252.054688 54.921875 -284.953125 C 85.429688 -317.859375 123.503906 -334.3125 169.140625 -334.3125 C 222.472656 -334.3125 264.660156 -315.601562 295.703125 -278.1875 L 246.75 -224.46875 C 229.238281 -252.59375 204.828125 -266.65625 173.515625 -266.65625 C 150.429688 -266.65625 130.726562 -256.632812 114.40625 -236.59375 C 98.09375 -216.5625 89.9375 -192.351562 89.9375 -163.96875 C 89.9375 -136.113281 98.09375 -112.300781 114.40625 -92.53125 C 130.726562 -72.757812 150.429688 -62.875 173.515625 -62.875 C 192.617188 -62.875 209.269531 -68.644531 223.46875 -80.1875 C 237.664062 -91.726562 244.765625 -107.050781 244.765625 -126.15625 L 169.140625 -126.15625 L 169.140625 -183.875 Z M 320.78125 -183.875 "/></g></g></g><g fill="#cb6ce6" fill-opacity="1"><g transform="translate(2457.929907, 1327.707351)"><g><path d="M 37.8125 -25.265625 C 18.707031 -46.097656 9.15625 -71.632812 9.15625 -101.875 C 9.15625 -132.125 18.707031 -157.726562 37.8125 -178.6875 C 56.914062 -199.65625 81.191406 -210.140625 110.640625 -210.140625 C 137.703125 -210.140625 159.988281 -201.648438 177.5 -184.671875 L 177.5 -204.171875 L 247.9375 -204.171875 L 247.9375 0 L 178.296875 0 L 178.296875 -23.078125 L 177.5 -23.078125 C 159.988281 -3.710938 137.703125 5.96875 110.640625 5.96875 C 81.191406 5.96875 56.914062 -4.441406 37.8125 -25.265625 Z M 97.703125 -136.515625 C 88.546875 -127.492188 83.96875 -115.953125 83.96875 -101.890625 C 83.96875 -87.828125 88.34375 -76.347656 97.09375 -67.453125 C 105.851562 -58.566406 117.398438 -54.125 131.734375 -54.125 C 145.523438 -54.125 156.863281 -58.632812 165.75 -67.65625 C 174.644531 -76.675781 179.09375 -88.085938 179.09375 -101.890625 C 179.09375 -115.953125 174.515625 -127.492188 165.359375 -136.515625 C 156.203125 -145.535156 144.992188 -150.046875 131.734375 -150.046875 C 118.203125 -150.046875 106.859375 -145.535156 97.703125 -136.515625 Z M 97.703125 -136.515625 "/></g></g></g><g fill="#cb6ce6" fill-opacity="1"><g transform="translate(2729.74644, 1327.707351)"><g><path d="M 23.875 0 L 23.875 -342.265625 L 94.328125 -342.265625 L 94.328125 0 Z M 23.875 0 "/></g></g></g><g fill="#cb6ce6" fill-opacity="1"><g transform="translate(2847.944864, 1327.707351)"><g><path d="M 37.8125 -25.265625 C 18.707031 -46.097656 9.15625 -71.632812 9.15625 -101.875 C 9.15625 -132.125 18.707031 -157.726562 37.8125 -178.6875 C 56.914062 -199.65625 81.191406 -210.140625 110.640625 -210.140625 C 137.703125 -210.140625 159.988281 -201.648438 177.5 -184.671875 L 177.5 -204.171875 L 247.9375 -204.171875 L 247.9375 0 L 178.296875 0 L 178.296875 -23.078125 L 177.5 -23.078125 C 159.988281 -3.710938 137.703125 5.96875 110.640625 5.96875 C 81.191406 5.96875 56.914062 -4.441406 37.8125 -25.265625 Z M 97.703125 -136.515625 C 88.546875 -127.492188 83.96875 -115.953125 83.96875 -101.890625 C 83.96875 -87.828125 88.34375 -76.347656 97.09375 -67.453125 C 105.851562 -58.566406 117.398438 -54.125 131.734375 -54.125 C 145.523438 -54.125 156.863281 -58.632812 165.75 -67.65625 C 174.644531 -76.675781 179.09375 -88.085938 179.09375 -101.890625 C 179.09375 -115.953125 174.515625 -127.492188 165.359375 -136.515625 C 156.203125 -145.535156 144.992188 -150.046875 131.734375 -150.046875 C 118.203125 -150.046875 106.859375 -145.535156 97.703125 -136.515625 Z M 97.703125 -136.515625 "/></g></g></g><g fill="#cb6ce6" fill-opacity="1"><g transform="translate(3119.761397, 1327.707351)"><g><path d="M 260.28125 0 L 175.109375 0 L 130.140625 -57.703125 L 85.171875 0 L 0 0 L 87.15625 -106.65625 L 12.34375 -204.171875 L 94.71875 -204.171875 L 130.140625 -156.8125 L 165.5625 -204.171875 L 247.9375 -204.171875 L 173.125 -106.65625 Z M 260.28125 0 "/></g></g></g><g fill="#cb6ce6" fill-opacity="1"><g transform="translate(3380.036631, 1327.707351)"><g><path d="M 178.6875 -204.171875 L 259.890625 -204.171875 L 99.5 103.46875 L 18.3125 103.46875 L 88.75 -31.84375 L -7.953125 -204.171875 L 73.234375 -204.171875 L 130.140625 -99.5 Z M 178.6875 -204.171875 "/></g></g></g></svg>