<?xml version="1.0" encoding="UTF-8"?>
<svg xmlns="http://www.w3.org/2000/svg" xmlns:xlink="http://www.w3.org/1999/xlink" width="52px" height="52px" viewBox="0 0 52 52" version="1.1">
<defs>
<clipPath id="clip1">
  <path d="M 3.25 3 L 47 3 L 47 46.582031 L 3.25 46.582031 Z M 3.25 3 "/>
</clipPath>
<clipPath id="clip2">
  <path d="M 5.808594 34.242188 C 11.074219 44.988281 24.042969 49.417969 34.789062 44.167969 C 45.535156 38.914062 49.964844 25.929688 44.707031 15.1875 C 39.433594 4.441406 26.460938 0 15.714844 5.265625 C 4.988281 10.53125 0.546875 23.503906 5.808594 34.242188 Z M 5.808594 34.242188 "/>
</clipPath>
<linearGradient id="linear0" gradientUnits="userSpaceOnUse" x1="71.888621" y1="-5195.190287" x2="16910.93466" y2="-11266.682804" gradientTransform="matrix(0.00352912,0,0,-0.00352912,-4.752249,-4.349709)">
<stop offset="0" style="stop-color:rgb(7.843137%,63.921569%,99.607843%);stop-opacity:1;"/>
<stop offset="0.125" style="stop-color:rgb(7.843137%,63.921569%,99.607843%);stop-opacity:1;"/>
<stop offset="0.15625" style="stop-color:rgb(7.843137%,63.921569%,99.607843%);stop-opacity:1;"/>
<stop offset="0.164062" style="stop-color:rgb(7.843137%,63.529412%,99.607843%);stop-opacity:1;"/>
<stop offset="0.167969" style="stop-color:rgb(8.235294%,63.137255%,98.823529%);stop-opacity:1;"/>
<stop offset="0.171875" style="stop-color:rgb(8.235294%,62.745098%,98.823529%);stop-opacity:1;"/>
<stop offset="0.175781" style="stop-color:rgb(8.235294%,62.352941%,98.431373%);stop-opacity:1;"/>
<stop offset="0.179687" style="stop-color:rgb(8.627451%,61.960784%,98.039216%);stop-opacity:1;"/>
<stop offset="0.183594" style="stop-color:rgb(8.627451%,61.568627%,97.647059%);stop-opacity:1;"/>
<stop offset="0.1875" style="stop-color:rgb(8.627451%,61.176471%,97.254902%);stop-opacity:1;"/>
<stop offset="0.191406" style="stop-color:rgb(9.019608%,60.392157%,96.862745%);stop-opacity:1;"/>
<stop offset="0.195312" style="stop-color:rgb(9.019608%,60%,96.470588%);stop-opacity:1;"/>
<stop offset="0.199219" style="stop-color:rgb(9.019608%,59.607843%,96.078431%);stop-opacity:1;"/>
<stop offset="0.203125" style="stop-color:rgb(9.411765%,59.215686%,95.686275%);stop-opacity:1;"/>
<stop offset="0.207031" style="stop-color:rgb(9.411765%,58.823529%,95.686275%);stop-opacity:1;"/>
<stop offset="0.210937" style="stop-color:rgb(9.411765%,58.431373%,95.294118%);stop-opacity:1;"/>
<stop offset="0.214844" style="stop-color:rgb(9.803922%,58.039216%,94.901961%);stop-opacity:1;"/>
<stop offset="0.21875" style="stop-color:rgb(9.803922%,57.647059%,94.509804%);stop-opacity:1;"/>
<stop offset="0.222656" style="stop-color:rgb(9.803922%,57.254902%,94.117647%);stop-opacity:1;"/>
<stop offset="0.226562" style="stop-color:rgb(10.196078%,56.862745%,93.72549%);stop-opacity:1;"/>
<stop offset="0.230469" style="stop-color:rgb(10.196078%,56.470588%,93.333333%);stop-opacity:1;"/>
<stop offset="0.234375" style="stop-color:rgb(10.588235%,56.078431%,92.941176%);stop-opacity:1;"/>
<stop offset="0.238281" style="stop-color:rgb(10.588235%,55.686275%,92.941176%);stop-opacity:1;"/>
<stop offset="0.242187" style="stop-color:rgb(10.588235%,54.901961%,92.54902%);stop-opacity:1;"/>
<stop offset="0.246094" style="stop-color:rgb(10.980392%,54.509804%,92.156863%);stop-opacity:1;"/>
<stop offset="0.25" style="stop-color:rgb(10.980392%,54.117647%,91.764706%);stop-opacity:1;"/>
<stop offset="0.253906" style="stop-color:rgb(10.980392%,53.72549%,91.372549%);stop-opacity:1;"/>
<stop offset="0.257812" style="stop-color:rgb(11.372549%,53.333333%,90.980392%);stop-opacity:1;"/>
<stop offset="0.261719" style="stop-color:rgb(11.372549%,52.941176%,90.588235%);stop-opacity:1;"/>
<stop offset="0.265625" style="stop-color:rgb(11.372549%,52.54902%,90.196078%);stop-opacity:1;"/>
<stop offset="0.269531" style="stop-color:rgb(11.764706%,52.156863%,90.196078%);stop-opacity:1;"/>
<stop offset="0.273437" style="stop-color:rgb(11.764706%,51.764706%,89.803922%);stop-opacity:1;"/>
<stop offset="0.277344" style="stop-color:rgb(11.764706%,51.372549%,89.411765%);stop-opacity:1;"/>
<stop offset="0.28125" style="stop-color:rgb(12.156863%,50.980392%,89.019608%);stop-opacity:1;"/>
<stop offset="0.285156" style="stop-color:rgb(12.156863%,50.588235%,88.627451%);stop-opacity:1;"/>
<stop offset="0.289062" style="stop-color:rgb(12.156863%,49.803922%,88.235294%);stop-opacity:1;"/>
<stop offset="0.292969" style="stop-color:rgb(12.54902%,49.411765%,87.843137%);stop-opacity:1;"/>
<stop offset="0.296875" style="stop-color:rgb(12.54902%,49.019608%,87.45098%);stop-opacity:1;"/>
<stop offset="0.300781" style="stop-color:rgb(12.941176%,48.627451%,87.058824%);stop-opacity:1;"/>
<stop offset="0.304687" style="stop-color:rgb(12.941176%,48.235294%,87.058824%);stop-opacity:1;"/>
<stop offset="0.308594" style="stop-color:rgb(12.941176%,47.843137%,86.666667%);stop-opacity:1;"/>
<stop offset="0.3125" style="stop-color:rgb(13.333333%,47.45098%,86.27451%);stop-opacity:1;"/>
<stop offset="0.316406" style="stop-color:rgb(13.333333%,47.058824%,85.882353%);stop-opacity:1;"/>
<stop offset="0.320312" style="stop-color:rgb(13.333333%,46.666667%,85.490196%);stop-opacity:1;"/>
<stop offset="0.324219" style="stop-color:rgb(13.72549%,46.27451%,85.098039%);stop-opacity:1;"/>
<stop offset="0.328125" style="stop-color:rgb(13.72549%,45.882353%,84.705882%);stop-opacity:1;"/>
<stop offset="0.332031" style="stop-color:rgb(13.72549%,45.490196%,84.313725%);stop-opacity:1;"/>
<stop offset="0.335937" style="stop-color:rgb(14.117647%,45.098039%,84.313725%);stop-opacity:1;"/>
<stop offset="0.339844" style="stop-color:rgb(14.117647%,44.313725%,83.921569%);stop-opacity:1;"/>
<stop offset="0.34375" style="stop-color:rgb(14.117647%,43.921569%,83.529412%);stop-opacity:1;"/>
<stop offset="0.347656" style="stop-color:rgb(14.509804%,43.529412%,83.137255%);stop-opacity:1;"/>
<stop offset="0.351562" style="stop-color:rgb(14.509804%,43.137255%,82.745098%);stop-opacity:1;"/>
<stop offset="0.355469" style="stop-color:rgb(14.509804%,42.745098%,82.352941%);stop-opacity:1;"/>
<stop offset="0.359375" style="stop-color:rgb(14.901961%,42.352941%,81.960784%);stop-opacity:1;"/>
<stop offset="0.363281" style="stop-color:rgb(14.901961%,41.960784%,81.568627%);stop-opacity:1;"/>
<stop offset="0.367188" style="stop-color:rgb(15.294118%,41.568627%,81.568627%);stop-opacity:1;"/>
<stop offset="0.371094" style="stop-color:rgb(15.294118%,41.176471%,81.176471%);stop-opacity:1;"/>
<stop offset="0.375" style="stop-color:rgb(15.294118%,40.784314%,80.784314%);stop-opacity:1;"/>
<stop offset="0.378906" style="stop-color:rgb(15.686275%,40.392157%,80.392157%);stop-opacity:1;"/>
<stop offset="0.382812" style="stop-color:rgb(15.686275%,40%,80%);stop-opacity:1;"/>
<stop offset="0.386719" style="stop-color:rgb(15.686275%,39.215686%,79.607843%);stop-opacity:1;"/>
<stop offset="0.390625" style="stop-color:rgb(16.078431%,38.823529%,79.215686%);stop-opacity:1;"/>
<stop offset="0.394531" style="stop-color:rgb(16.078431%,38.431373%,78.823529%);stop-opacity:1;"/>
<stop offset="0.398437" style="stop-color:rgb(16.078431%,38.039216%,78.823529%);stop-opacity:1;"/>
<stop offset="0.402344" style="stop-color:rgb(16.470588%,37.647059%,78.431373%);stop-opacity:1;"/>
<stop offset="0.40625" style="stop-color:rgb(16.470588%,37.254902%,78.039216%);stop-opacity:1;"/>
<stop offset="0.410156" style="stop-color:rgb(16.470588%,36.862745%,77.647059%);stop-opacity:1;"/>
<stop offset="0.414062" style="stop-color:rgb(16.862745%,36.470588%,77.254902%);stop-opacity:1;"/>
<stop offset="0.417969" style="stop-color:rgb(16.862745%,36.078431%,76.862745%);stop-opacity:1;"/>
<stop offset="0.421875" style="stop-color:rgb(16.862745%,35.686275%,76.470588%);stop-opacity:1;"/>
<stop offset="0.425781" style="stop-color:rgb(17.254902%,35.294118%,76.078431%);stop-opacity:1;"/>
<stop offset="0.429687" style="stop-color:rgb(17.254902%,34.901961%,75.686275%);stop-opacity:1;"/>
<stop offset="0.433594" style="stop-color:rgb(17.647059%,34.117647%,75.686275%);stop-opacity:1;"/>
<stop offset="0.4375" style="stop-color:rgb(17.647059%,33.72549%,75.294118%);stop-opacity:1;"/>
<stop offset="0.441406" style="stop-color:rgb(17.647059%,33.333333%,74.901961%);stop-opacity:1;"/>
<stop offset="0.445312" style="stop-color:rgb(18.039216%,32.941176%,74.509804%);stop-opacity:1;"/>
<stop offset="0.449219" style="stop-color:rgb(18.039216%,32.54902%,74.117647%);stop-opacity:1;"/>
<stop offset="0.453125" style="stop-color:rgb(18.039216%,32.156863%,73.72549%);stop-opacity:1;"/>
<stop offset="0.457031" style="stop-color:rgb(18.431373%,31.764706%,73.333333%);stop-opacity:1;"/>
<stop offset="0.460937" style="stop-color:rgb(18.431373%,31.372549%,72.941176%);stop-opacity:1;"/>
<stop offset="0.464844" style="stop-color:rgb(18.431373%,30.980392%,72.941176%);stop-opacity:1;"/>
<stop offset="0.46875" style="stop-color:rgb(18.823529%,30.588235%,72.54902%);stop-opacity:1;"/>
<stop offset="0.472656" style="stop-color:rgb(18.823529%,30.196078%,72.156863%);stop-opacity:1;"/>
<stop offset="0.476562" style="stop-color:rgb(18.823529%,29.803922%,71.764706%);stop-opacity:1;"/>
<stop offset="0.480469" style="stop-color:rgb(19.215686%,29.411765%,71.372549%);stop-opacity:1;"/>
<stop offset="0.484375" style="stop-color:rgb(19.215686%,28.627451%,70.980392%);stop-opacity:1;"/>
<stop offset="0.488281" style="stop-color:rgb(19.215686%,28.235294%,70.588235%);stop-opacity:1;"/>
<stop offset="0.492187" style="stop-color:rgb(19.607843%,27.843137%,70.196078%);stop-opacity:1;"/>
<stop offset="0.496094" style="stop-color:rgb(19.607843%,27.45098%,70.196078%);stop-opacity:1;"/>
<stop offset="0.5" style="stop-color:rgb(20%,27.058824%,69.803922%);stop-opacity:1;"/>
<stop offset="0.503906" style="stop-color:rgb(20%,26.666667%,69.411765%);stop-opacity:1;"/>
<stop offset="0.507812" style="stop-color:rgb(20%,26.27451%,69.019608%);stop-opacity:1;"/>
<stop offset="0.511719" style="stop-color:rgb(20.392157%,25.882353%,68.627451%);stop-opacity:1;"/>
<stop offset="0.515625" style="stop-color:rgb(20.392157%,25.490196%,68.235294%);stop-opacity:1;"/>
<stop offset="0.519531" style="stop-color:rgb(20.392157%,25.098039%,67.843137%);stop-opacity:1;"/>
<stop offset="0.523437" style="stop-color:rgb(20.784314%,24.705882%,67.45098%);stop-opacity:1;"/>
<stop offset="0.527344" style="stop-color:rgb(20.784314%,24.313725%,67.058824%);stop-opacity:1;"/>
<stop offset="0.53125" style="stop-color:rgb(20.784314%,23.529412%,67.058824%);stop-opacity:1;"/>
<stop offset="0.535156" style="stop-color:rgb(21.176471%,23.137255%,66.666667%);stop-opacity:1;"/>
<stop offset="0.539062" style="stop-color:rgb(21.176471%,22.745098%,66.27451%);stop-opacity:1;"/>
<stop offset="0.542969" style="stop-color:rgb(21.176471%,22.352941%,65.882353%);stop-opacity:1;"/>
<stop offset="0.546875" style="stop-color:rgb(21.568627%,21.960784%,65.490196%);stop-opacity:1;"/>
<stop offset="0.550781" style="stop-color:rgb(21.568627%,21.568627%,65.098039%);stop-opacity:1;"/>
<stop offset="0.554688" style="stop-color:rgb(21.568627%,21.176471%,64.705882%);stop-opacity:1;"/>
<stop offset="0.558594" style="stop-color:rgb(21.960784%,20.784314%,64.313725%);stop-opacity:1;"/>
<stop offset="0.5625" style="stop-color:rgb(21.960784%,20.392157%,64.313725%);stop-opacity:1;"/>
<stop offset="0.566406" style="stop-color:rgb(22.352941%,20%,63.921569%);stop-opacity:1;"/>
<stop offset="0.570312" style="stop-color:rgb(22.352941%,19.607843%,63.529412%);stop-opacity:1;"/>
<stop offset="0.574219" style="stop-color:rgb(22.352941%,19.215686%,63.137255%);stop-opacity:1;"/>
<stop offset="0.578125" style="stop-color:rgb(22.745098%,18.823529%,62.745098%);stop-opacity:1;"/>
<stop offset="0.582031" style="stop-color:rgb(22.745098%,18.039216%,62.352941%);stop-opacity:1;"/>
<stop offset="0.585937" style="stop-color:rgb(22.745098%,17.647059%,61.960784%);stop-opacity:1;"/>
<stop offset="0.589844" style="stop-color:rgb(23.137255%,17.254902%,61.568627%);stop-opacity:1;"/>
<stop offset="0.59375" style="stop-color:rgb(23.137255%,16.862745%,61.568627%);stop-opacity:1;"/>
<stop offset="0.597656" style="stop-color:rgb(23.137255%,16.470588%,61.176471%);stop-opacity:1;"/>
<stop offset="0.601562" style="stop-color:rgb(23.529412%,16.078431%,60.784314%);stop-opacity:1;"/>
<stop offset="0.605469" style="stop-color:rgb(23.529412%,15.686275%,60.392157%);stop-opacity:1;"/>
<stop offset="0.609375" style="stop-color:rgb(23.529412%,15.294118%,60%);stop-opacity:1;"/>
<stop offset="0.613281" style="stop-color:rgb(23.921569%,14.901961%,59.607843%);stop-opacity:1;"/>
<stop offset="0.617188" style="stop-color:rgb(23.921569%,14.509804%,59.215686%);stop-opacity:1;"/>
<stop offset="0.621094" style="stop-color:rgb(23.921569%,14.117647%,58.823529%);stop-opacity:1;"/>
<stop offset="0.625" style="stop-color:rgb(24.313725%,13.72549%,58.431373%);stop-opacity:1;"/>
<stop offset="0.628906" style="stop-color:rgb(24.313725%,12.941176%,58.431373%);stop-opacity:1;"/>
<stop offset="0.632812" style="stop-color:rgb(24.705882%,12.54902%,58.039216%);stop-opacity:1;"/>
<stop offset="0.636719" style="stop-color:rgb(24.705882%,12.156863%,57.647059%);stop-opacity:1;"/>
<stop offset="0.640625" style="stop-color:rgb(24.705882%,11.764706%,57.254902%);stop-opacity:1;"/>
<stop offset="0.644531" style="stop-color:rgb(25.098039%,11.372549%,56.862745%);stop-opacity:1;"/>
<stop offset="0.648437" style="stop-color:rgb(25.098039%,10.980392%,56.470588%);stop-opacity:1;"/>
<stop offset="0.652344" style="stop-color:rgb(25.098039%,10.588235%,56.078431%);stop-opacity:1;"/>
<stop offset="0.65625" style="stop-color:rgb(25.490196%,10.196078%,55.686275%);stop-opacity:1;"/>
<stop offset="0.660156" style="stop-color:rgb(25.490196%,9.803922%,55.686275%);stop-opacity:1;"/>
<stop offset="0.664062" style="stop-color:rgb(25.490196%,9.411765%,55.294118%);stop-opacity:1;"/>
<stop offset="0.667969" style="stop-color:rgb(25.882353%,9.019608%,54.901961%);stop-opacity:1;"/>
<stop offset="0.671875" style="stop-color:rgb(25.882353%,8.627451%,54.509804%);stop-opacity:1;"/>
<stop offset="0.675781" style="stop-color:rgb(25.882353%,8.235294%,54.117647%);stop-opacity:1;"/>
<stop offset="0.679687" style="stop-color:rgb(26.27451%,7.45098%,53.72549%);stop-opacity:1;"/>
<stop offset="0.683594" style="stop-color:rgb(26.27451%,7.058824%,53.333333%);stop-opacity:1;"/>
<stop offset="0.6875" style="stop-color:rgb(26.27451%,6.666667%,52.941176%);stop-opacity:1;"/>
<stop offset="0.691406" style="stop-color:rgb(26.666667%,6.27451%,52.941176%);stop-opacity:1;"/>
<stop offset="0.695312" style="stop-color:rgb(26.666667%,5.882353%,52.54902%);stop-opacity:1;"/>
<stop offset="0.699219" style="stop-color:rgb(27.058824%,5.490196%,52.156863%);stop-opacity:1;"/>
<stop offset="0.703125" style="stop-color:rgb(27.058824%,5.098039%,51.764706%);stop-opacity:1;"/>
<stop offset="0.707031" style="stop-color:rgb(27.058824%,4.705882%,51.372549%);stop-opacity:1;"/>
<stop offset="0.710938" style="stop-color:rgb(27.45098%,4.313725%,50.980392%);stop-opacity:1;"/>
<stop offset="0.714844" style="stop-color:rgb(27.45098%,3.921569%,50.588235%);stop-opacity:1;"/>
<stop offset="0.71875" style="stop-color:rgb(27.45098%,3.529412%,50.196078%);stop-opacity:1;"/>
<stop offset="0.722656" style="stop-color:rgb(27.843137%,3.137255%,50.196078%);stop-opacity:1;"/>
<stop offset="0.726562" style="stop-color:rgb(27.843137%,2.745098%,49.803922%);stop-opacity:1;"/>
<stop offset="0.734375" style="stop-color:rgb(27.843137%,2.745098%,49.803922%);stop-opacity:1;"/>
<stop offset="0.734651" style="stop-color:rgb(27.843137%,2.745098%,49.803922%);stop-opacity:1;"/>
<stop offset="0.75" style="stop-color:rgb(27.843137%,2.745098%,49.803922%);stop-opacity:1;"/>
<stop offset="1" style="stop-color:rgb(27.843137%,2.745098%,49.803922%);stop-opacity:1;"/>
</linearGradient>
</defs>
<g id="surface1">
<g clip-path="url(#clip1)" clip-rule="nonzero">
<g clip-path="url(#clip2)" clip-rule="evenodd">
<path style=" stroke:none;fill-rule:nonzero;fill:url(#linear0);" d="M 0.546875 49.417969 L 0.546875 0 L 49.875 0 L 49.875 49.417969 Z M 0.546875 49.417969 "/>
</g>
</g>
<path style=" stroke:none;fill-rule:evenodd;fill:rgb(40%,60%,100%);fill-opacity:0.54902;" d="M 12.082031 7.519531 C 14.695312 9.621094 18.570312 11.566406 23.671875 11.078125 C 34.15625 10.109375 36.65625 15.015625 42.558594 15.996094 L 45.269531 16.445312 C 45.683594 17.4375 46.015625 18.449219 46.265625 19.46875 C 45.257812 19.132812 43.875 19.046875 42.007812 19.484375 C 35.785156 20.902344 34.367188 14.027344 26.511719 16.207031 C 18.65625 18.386719 12.753906 18.722656 10.574219 14.355469 C 9.917969 13.035156 9.074219 12.058594 8.214844 11.339844 C 9.316406 9.917969 10.613281 8.640625 12.082031 7.519531 Z M 5.808594 34.242188 C 6.582031 35.824219 7.527344 37.28125 8.613281 38.578125 C 11.796875 38.242188 15.894531 36.761719 18.480469 37.667969 C 21.753906 38.8125 26.722656 39.75 30.820312 39.910156 C 33.992188 40.03125 36.121094 42.0625 36.90625 42.972656 C 39.46875 41.328125 41.597656 39.222656 43.214844 36.808594 C 40.503906 37.609375 36.445312 38.441406 33.597656 37.410156 C 28.949219 35.714844 27.429688 33.648438 23.386719 33.859375 C 19.351562 34.082031 17.113281 35.503906 12.804688 33.972656 C 10.042969 32.988281 7.054688 32.972656 5.273438 33.089844 C 5.449219 33.460938 5.625 33.847656 5.808594 34.242188 Z M 46.328125 29.703125 C 46.675781 28.246094 46.875 26.742188 46.914062 25.234375 C 45.484375 25.320312 42.546875 25.15625 39.234375 24.1875 C 34.964844 22.933594 30.007812 27.234375 25.253906 24.710938 C 20.5 22.183594 18.382812 23.363281 12.484375 24.402344 C 8.945312 25.023438 5.722656 23.625 3.71875 22.394531 C 3.519531 24.285156 3.554688 26.203125 3.867188 28.121094 C 4.292969 28.144531 4.804688 28.195312 5.449219 28.269531 C 8.398438 28.59375 12.273438 31.769531 16.640625 30.125 C 21.011719 28.480469 25.089844 28.160156 29.1875 29.964844 C 33.28125 31.769531 37.265625 29.800781 40.476562 28.703125 C 42.605469 27.984375 44.972656 28.953125 46.328125 29.703125 Z M 46.328125 29.703125 "/>
<path style=" stroke:none;fill-rule:evenodd;fill:rgb(0%,80%,100%);fill-opacity:0.25098;" d="M 10.414062 40.480469 C 12.332031 39.910156 15.355469 39.359375 17.722656 40.492188 C 21.480469 42.300781 21.433594 43.332031 25.960938 43.382812 C 29 43.417969 31.515625 44.367188 32.847656 44.976562 C 25.003906 47.9375 16.304688 46.019531 10.414062 40.480469 Z M 44.859375 33.894531 C 45.792969 31.894531 46.425781 29.742188 46.726562 27.535156 C 46.378906 27.484375 45.957031 27.414062 45.445312 27.335938 C 42.605469 26.902344 39.007812 28.53125 37.429688 27.882812 C 35.847656 27.222656 34.539062 27.285156 30.832031 27.933594 C 27.121094 28.59375 26.300781 28.09375 22.203125 26.625 C 18.109375 25.15625 15.171875 27.773438 10.027344 27.882812 C 7.164062 27.945312 4.988281 26.800781 3.617188 25.78125 C 3.683594 27.152344 3.894531 28.53125 4.226562 29.902344 C 5.636719 29.964844 7.554688 30.175781 9.316406 30.785156 C 12.644531 31.929688 14.773438 32.042969 19.140625 31.011719 C 23.511719 29.972656 28.367188 31.445312 30.707031 32.539062 C 33.046875 33.632812 36.269531 34.34375 39.769531 33.523438 C 41.796875 33.039062 43.652344 33.460938 44.859375 33.894531 Z M 46.636719 21.261719 C 46.503906 20.414062 46.316406 19.582031 46.078125 18.746094 C 42.980469 18.164062 39.65625 19.074219 36.90625 17.6875 C 35.996094 17.238281 35.386719 16.777344 34.890625 16.355469 C 30.957031 13.035156 26.972656 13.757812 22.191406 14.605469 C 19.613281 15.0625 17.335938 15.484375 15.183594 14.777344 C 13.304688 14.15625 11.523438 12.6875 9.714844 9.609375 C 9.058594 10.296875 8.4375 11.015625 7.875 11.777344 C 8.222656 12.308594 8.660156 12.996094 9.207031 13.867188 C 11.773438 17.902344 12.53125 19.816406 18.753906 20.09375 C 23.472656 20.304688 27.609375 18.136719 30.917969 18.261719 C 33.445312 18.363281 34.851562 20.203125 37.140625 21.246094 C 41.25 23.117188 42.828125 21.015625 46.636719 21.261719 Z M 41.398438 10.269531 C 35.386719 3.546875 25.613281 1.121094 16.988281 4.691406 C 19.191406 7.070312 21.820312 8.167969 24.867188 7.96875 C 26.5625 7.890625 28.078125 7.941406 29.449219 8.117188 C 33.296875 8.589844 37.640625 11.339844 41.398438 10.269531 Z M 41.398438 10.269531 "/>
<path style=" stroke:none;fill-rule:evenodd;fill:rgb(27.843137%,2.745098%,49.803922%);fill-opacity:0.2;" d="M 44.972656 15.734375 C 48.355469 38.878906 22.019531 50.9375 7.355469 36.898438 C 8.097656 37.992188 8.972656 39.050781 9.941406 40.019531 C 18.394531 48.476562 32.113281 48.476562 40.566406 40.019531 C 47.136719 33.460938 48.605469 23.726562 44.972656 15.734375 Z M 44.972656 15.734375 "/>
<path style=" stroke:none;fill-rule:nonzero;fill:rgb(79.607843%,42.352941%,90.196078%);fill-opacity:1;" d="M 16.996094 24.007812 L 16.996094 25.363281 C 16.828125 26.121094 16.464844 26.691406 15.914062 27.074219 C 15.371094 27.457031 14.761719 27.648438 14.085938 27.648438 C 13.226562 27.648438 12.5 27.335938 11.902344 26.699219 C 11.300781 26.058594 11.003906 25.289062 11.003906 24.382812 C 11.003906 23.46875 11.296875 22.699219 11.886719 22.0625 C 12.46875 21.433594 13.207031 21.113281 14.085938 21.113281 C 15.101562 21.113281 15.90625 21.480469 16.507812 22.199219 L 15.574219 23.230469 C 15.238281 22.6875 14.765625 22.417969 14.171875 22.417969 C 13.71875 22.417969 13.332031 22.613281 13.019531 22.992188 C 12.714844 23.378906 12.5625 23.839844 12.5625 24.382812 C 12.5625 24.921875 12.714844 25.390625 13.019531 25.769531 C 13.332031 26.140625 13.71875 26.328125 14.171875 26.328125 C 14.53125 26.328125 14.847656 26.222656 15.117188 26.007812 C 15.390625 25.78125 15.523438 25.480469 15.523438 25.109375 L 14.085938 25.109375 L 14.085938 24.007812 Z M 16.996094 24.007812 "/>
<path style=" stroke:none;fill-rule:nonzero;fill:rgb(79.607843%,42.352941%,90.196078%);fill-opacity:1;" d="M 17.875 27.054688 C 17.511719 26.648438 17.332031 26.160156 17.332031 25.582031 C 17.332031 25 17.511719 24.507812 17.875 24.109375 C 18.246094 23.703125 18.710938 23.5 19.28125 23.5 C 19.796875 23.5 20.226562 23.667969 20.566406 23.992188 L 20.566406 23.621094 L 21.921875 23.621094 L 21.921875 27.53125 L 20.582031 27.53125 L 20.582031 27.089844 L 20.566406 27.089844 C 20.226562 27.460938 19.796875 27.648438 19.28125 27.648438 C 18.710938 27.648438 18.246094 27.453125 17.875 27.054688 Z M 19.027344 24.921875 C 18.855469 25.09375 18.773438 25.3125 18.773438 25.582031 C 18.773438 25.847656 18.855469 26.066406 19.027344 26.242188 C 19.195312 26.414062 19.414062 26.496094 19.6875 26.496094 C 19.957031 26.496094 20.175781 26.414062 20.347656 26.242188 C 20.515625 26.066406 20.601562 25.847656 20.601562 25.582031 C 20.601562 25.3125 20.507812 25.09375 20.328125 24.921875 C 20.160156 24.746094 19.945312 24.652344 19.6875 24.652344 C 19.421875 24.652344 19.203125 24.746094 19.027344 24.921875 Z M 19.027344 24.921875 "/>
<path style=" stroke:none;fill-rule:nonzero;fill:rgb(79.607843%,42.352941%,90.196078%);fill-opacity:1;" d="M 22.835938 27.53125 L 22.835938 20.960938 L 24.1875 20.960938 L 24.1875 27.53125 Z M 22.835938 27.53125 "/>
<path style=" stroke:none;fill-rule:nonzero;fill:rgb(79.607843%,42.352941%,90.196078%);fill-opacity:1;" d="M 25.355469 27.054688 C 24.992188 26.648438 24.8125 26.160156 24.8125 25.582031 C 24.8125 25 24.992188 24.507812 25.355469 24.109375 C 25.726562 23.703125 26.191406 23.5 26.761719 23.5 C 27.277344 23.5 27.707031 23.667969 28.046875 23.992188 L 28.046875 23.621094 L 29.402344 23.621094 L 29.402344 27.53125 L 28.0625 27.53125 L 28.0625 27.089844 L 28.046875 27.089844 C 27.707031 27.460938 27.277344 27.648438 26.761719 27.648438 C 26.191406 27.648438 25.726562 27.453125 25.355469 27.054688 Z M 26.507812 24.921875 C 26.335938 25.09375 26.253906 25.3125 26.253906 25.582031 C 26.253906 25.847656 26.335938 26.066406 26.507812 26.242188 C 26.675781 26.414062 26.894531 26.496094 27.167969 26.496094 C 27.4375 26.496094 27.65625 26.414062 27.828125 26.242188 C 27.996094 26.066406 28.082031 25.847656 28.082031 25.582031 C 28.082031 25.3125 27.988281 25.09375 27.808594 24.921875 C 27.640625 24.746094 27.425781 24.652344 27.167969 24.652344 C 26.902344 24.652344 26.683594 24.746094 26.507812 24.921875 Z M 26.507812 24.921875 "/>
<path style=" stroke:none;fill-rule:nonzero;fill:rgb(79.607843%,42.352941%,90.196078%);fill-opacity:1;" d="M 34.851562 27.53125 L 33.210938 27.53125 L 32.347656 26.429688 L 31.5 27.53125 L 29.859375 27.53125 L 31.535156 25.480469 L 30.09375 23.621094 L 31.667969 23.621094 L 32.347656 24.515625 L 33.039062 23.621094 L 34.613281 23.621094 L 33.175781 25.480469 Z M 34.851562 27.53125 "/>
<path style=" stroke:none;fill-rule:nonzero;fill:rgb(79.607843%,42.352941%,90.196078%);fill-opacity:1;" d="M 38.285156 23.621094 L 39.84375 23.621094 L 36.761719 29.511719 L 35.207031 29.511719 L 36.558594 26.921875 L 34.699219 23.621094 L 36.253906 23.621094 L 37.339844 25.617188 Z M 38.285156 23.621094 "/>
</g>
</svg>
