<?xml version="1.0" encoding="UTF-8"?>
<!DOCTYPE svg PUBLIC "-//W3C//DTD SVG 1.1//EN" "http://www.w3.org/Graphics/SVG/1.1/DTD/svg11.dtd">
<svg xmlns="http://www.w3.org/2000/svg" version="1.1" width="300px" height="200px" style="shape-rendering:geometricPrecision; text-rendering:geometricPrecision; image-rendering:optimizeQuality; fill-rule:evenodd; clip-rule:evenodd" xmlns:xlink="http://www.w3.org/1999/xlink">
<g><path style="opacity:0.071" fill="#040404" d="M 52.5,86.5 C 50.8193,89.2028 49.1526,91.8695 47.5,94.5C 46.3204,91.8304 46.487,89.1637 48,86.5C 49.6155,85.1991 51.1155,85.1991 52.5,86.5 Z"/></g>
<g><path style="opacity:0.973" fill="#9d9d9d" d="M 217.5,84.5 C 221.976,84.8003 223.31,86.9669 221.5,91C 215.339,91.878 214.006,89.7113 217.5,84.5 Z"/></g>
<g><path style="opacity:0.99" fill="#bfbfbf" d="M 82.5,87.5 C 82.6068,89.3786 82.1068,89.7119 81,88.5C 79.3732,89.5323 78.2066,90.8656 77.5,92.5C 76.5,92.5 75.5,92.5 74.5,92.5C 74.5,96.5 74.5,100.5 74.5,104.5C 76.5,104.5 78.5,104.5 80.5,104.5C 81.7383,104.81 81.7383,105.31 80.5,106C 81.7932,106.49 83.1266,106.657 84.5,106.5C 84.5,107.5 84.5,108.5 84.5,109.5C 79.4395,111.612 74.2729,111.945 69,110.5C 68.5003,102.507 68.3336,94.5069 68.5,86.5C 73.3633,86.1805 78.03,86.5139 82.5,87.5 Z"/></g>
<g><path style="opacity:0.981" fill="#b9b9b9" d="M 108.5,86.5 C 108.611,87.1174 108.944,87.6174 109.5,88C 108.167,88.6667 106.833,89.3333 105.5,90C 106.024,94.6664 106.69,99.4997 107.5,104.5C 109.631,105.314 111.964,105.814 114.5,106C 114.167,106.333 113.833,106.667 113.5,107C 114.942,107.377 115.942,108.21 116.5,109.5C 113.983,110.973 111.15,111.64 108,111.5C 105.906,111.464 103.906,111.131 102,110.5C 100.931,102.472 100.765,94.4724 101.5,86.5C 103.833,86.5 106.167,86.5 108.5,86.5 Z"/></g>
<g><path style="opacity:0.992" fill="#b3b3b3" d="M 108.5,86.5 C 118.582,86.415 123.415,91.415 123,101.5C 121.988,105.236 119.821,107.903 116.5,109.5C 115.942,108.21 114.942,107.377 113.5,107C 113.833,106.667 114.167,106.333 114.5,106C 111.964,105.814 109.631,105.314 107.5,104.5C 106.69,99.4997 106.024,94.6664 105.5,90C 106.833,89.3333 108.167,88.6667 109.5,88C 108.944,87.6174 108.611,87.1174 108.5,86.5 Z M 107.5,104.5 C 107.5,100.5 107.5,96.5 107.5,92.5C 116.385,93.1041 118.385,96.9375 113.5,104C 111.527,104.495 109.527,104.662 107.5,104.5 Z"/></g>
<g><path style="opacity:0.99" fill="#b9b9b9" d="M 52.5,86.5 C 53.9778,86.238 55.3112,86.5713 56.5,87.5C 58.12,90.4037 59.4533,93.4037 60.5,96.5C 59.1529,97.1712 57.9862,97.1712 57,96.5C 55.9614,97.2438 55.4614,98.2438 55.5,99.5C 56.0431,99.56 56.3764,99.8933 56.5,100.5C 53.4925,102.1 51.1592,101.433 49.5,98.5C 48.3777,99.6302 47.0443,100.297 45.5,100.5C 46.1667,98.5 46.8333,96.5 47.5,94.5C 49.1526,91.8695 50.8193,89.2028 52.5,86.5 Z M 55.5,99.5 C 52.4428,100.97 51.9428,100.303 54,97.5C 54.2784,98.4158 54.7784,99.0825 55.5,99.5 Z"/></g>
<g><path style="opacity:0.991" fill="#b4b4b4" d="M 82.5,87.5 C 89.6673,91.179 91.834,96.8456 89,104.5C 87.9509,106.618 86.4509,108.284 84.5,109.5C 84.5,108.5 84.5,107.5 84.5,106.5C 83.1266,106.657 81.7932,106.49 80.5,106C 81.7383,105.31 81.7383,104.81 80.5,104.5C 85.0781,99.0505 84.0781,95.0505 77.5,92.5C 78.2066,90.8656 79.3732,89.5323 81,88.5C 82.1068,89.7119 82.6068,89.3786 82.5,87.5 Z"/></g>
<g><path style="opacity:0.987" fill="#b1b1b1" d="M 126.5,92.5 C 127.552,92.3505 128.552,92.5172 129.5,93C 131.291,95.414 132.957,97.914 134.5,100.5C 136.097,97.6295 137.93,94.9628 140,92.5C 141.951,92.8877 143.451,93.8877 144.5,95.5C 141.055,103.872 137.055,111.872 132.5,119.5C 130.503,119.014 129.169,117.847 128.5,116C 129.206,113.38 130.206,110.88 131.5,108.5C 129.582,104.996 127.416,101.663 125,98.5C 124.252,96.1599 124.752,94.1599 126.5,92.5 Z"/></g>
<g><path style="opacity:0.989" fill="#adadad" d="M 148.5,92.5 C 158.27,90.7534 163.603,94.9201 164.5,105C 164.936,110.245 162.769,112.078 158,110.5C 157.667,107.167 157.333,103.833 157,100.5C 155.667,99.1667 154.333,99.1667 153,100.5C 152.667,103.5 152.333,106.5 152,109.5C 150.477,111.62 148.644,111.953 146.5,110.5C 145.337,105.198 145.171,99.8643 146,94.5C 146.995,93.9341 147.828,93.2674 148.5,92.5 Z"/></g>
<g><path style="opacity:0.991" fill="#a6a6a6" d="M 218.5,92.5 C 219.721,93.0283 220.887,93.695 222,94.5C 222.667,99.8333 222.667,105.167 222,110.5C 220,111.833 218,111.833 216,110.5C 215.333,105.167 215.333,99.8333 216,94.5C 216.995,93.9341 217.828,93.2674 218.5,92.5 Z"/></g>
<g><path style="opacity:0.985" fill="#b4b4b4" d="M 170.5,93.5 C 175.267,94.3648 179.933,94.3648 184.5,93.5C 184.666,99.1764 184.499,104.843 184,110.5C 183.275,111.059 182.442,111.392 181.5,111.5C 179.167,110.167 176.833,110.167 174.5,111.5C 168.946,110.779 165.946,107.613 165.5,102C 166.15,98.5283 167.816,95.695 170.5,93.5 Z M 173.5,99.5 C 177.161,99.3501 178.161,100.85 176.5,104C 172.707,104.487 171.707,102.987 173.5,99.5 Z"/></g>
<g><path style="opacity:0.989" fill="#b1b1b1" d="M 207.5,110.5 C 208.08,106.351 207.414,102.684 205.5,99.5C 204.883,99.6107 204.383,99.944 204,100.5C 203.667,103.833 203.333,107.167 203,110.5C 200.765,111.98 198.932,111.647 197.5,109.5C 198.069,105.671 197.402,102.337 195.5,99.5C 194.883,99.6107 194.383,99.944 194,100.5C 193.793,104.089 193.293,107.589 192.5,111C 190.299,111.825 188.466,111.325 187,109.5C 186.196,104.249 186.363,99.082 187.5,94C 188.416,93.6258 189.25,93.1258 190,92.5C 192.333,93.8333 194.667,93.8333 197,92.5C 198.892,93.13 200.559,94.13 202,95.5C 206.964,92.1067 210.631,93.1067 213,98.5C 213.667,102.5 213.667,106.5 213,110.5C 211.057,111.807 209.223,111.807 207.5,110.5 Z"/></g>
<g><path style="opacity:0.991" fill="#b7b7b7" d="M 60.5,96.5 C 62.9993,100.165 64.9993,104.165 66.5,108.5C 63.2084,112.72 60.5417,112.22 58.5,107C 55.5,106.333 52.5,106.333 49.5,107C 48.4123,110.878 46.079,112.044 42.5,110.5C 41.7186,106.705 42.7186,103.372 45.5,100.5C 47.0443,100.297 48.3777,99.6302 49.5,98.5C 51.1592,101.433 53.4925,102.1 56.5,100.5C 56.3764,99.8933 56.0431,99.56 55.5,99.5C 55.4614,98.2438 55.9614,97.2438 57,96.5C 57.9862,97.1712 59.1529,97.1712 60.5,96.5 Z"/></g>
<g><path style="opacity:0.993" fill="#b1b1b1" d="M 231.5,92.5 C 235.52,92.2143 238.52,93.7143 240.5,97C 240.241,98.2613 239.574,99.2613 238.5,100C 236.443,100.305 234.443,100.305 232.5,100C 231.62,101.356 231.286,102.856 231.5,104.5C 233.401,104.567 235.234,104.233 237,103.5C 240.255,104.532 241.088,106.532 239.5,109.5C 229.044,113.208 224.21,109.542 225,98.5C 226.494,95.6865 228.66,93.6865 231.5,92.5 Z"/></g>
<g><path style="opacity:0.979" fill="#b0b0b0" d="M 243.5,105.5 C 244.5,105.5 245.5,105.5 246.5,105.5C 246.833,105.5 247.167,105.5 247.5,105.5C 247.5,106.167 247.833,106.5 248.5,106.5C 249.492,106.672 250.158,106.338 250.5,105.5C 249.791,104.596 248.791,104.263 247.5,104.5C 247.167,104.5 246.833,104.5 246.5,104.5C 246.5,103.833 246.167,103.5 245.5,103.5C 243.265,102.714 242.265,101.048 242.5,98.5C 242.946,94.4271 245.28,92.4271 249.5,92.5C 256.671,92.4421 258.004,94.9421 253.5,100C 258.833,103.667 258.833,107.333 253.5,111C 250.833,111.667 248.167,111.667 245.5,111C 241.196,110.249 240.53,108.416 243.5,105.5 Z"/></g>
<g><path style="opacity:0.22" fill="#404040" d="M 252.5,98.5 C 251.209,98.2627 250.209,98.596 249.5,99.5C 248.249,98.528 248.582,97.8614 250.5,97.5C 251.416,97.5427 252.083,97.8761 252.5,98.5 Z"/></g>
<g><path style="opacity:0.413" fill="#5d5d5d" d="M 205.5,99.5 C 207.414,102.684 208.08,106.351 207.5,110.5C 206.77,106.939 206.103,103.273 205.5,99.5 Z"/></g>
<g><path style="opacity:0.2" fill="#3c3c3c" d="M 245.5,103.5 C 246.167,103.5 246.5,103.833 246.5,104.5C 246.5,104.833 246.5,105.167 246.5,105.5C 245.5,105.5 244.5,105.5 243.5,105.5C 244.167,104.833 244.833,104.167 245.5,103.5 Z"/></g>
<g><path style="opacity:0.375" fill="#505050" d="M 195.5,99.5 C 197.402,102.337 198.069,105.671 197.5,109.5C 196.763,106.275 196.097,102.941 195.5,99.5 Z"/></g>
<g><path style="opacity:0.2" fill="#353535" d="M 247.5,104.5 C 248.791,104.263 249.791,104.596 250.5,105.5C 249.508,105.328 248.842,105.662 248.5,106.5C 247.833,106.5 247.5,106.167 247.5,105.5C 247.5,105.167 247.5,104.833 247.5,104.5 Z"/></g>
</svg>
