<svg xmlns="http://www.w3.org/2000/svg" xmlns:xlink="http://www.w3.org/1999/xlink" width="3840" zoomAndPan="magnify" viewBox="0 0 2880 1619.99993" height="2160" preserveAspectRatio="xMidYMid meet" version="1.0"><defs><g/><clipPath id="44d3e285c7"><path d="M 682 26 L 2198 26 L 2198 1541 L 682 1541 Z M 682 26 " clip-rule="nonzero"/></clipPath><clipPath id="1f2d957ca3"><path d="M 760.1875 1116.820312 C 944.285156 1492.410156 1397.777344 1647.347656 1773.367188 1463.6875 C 2148.960938 1280.027344 2303.894531 826.097656 2120.234375 450.507812 C 1935.703125 74.917969 1482.210938 -80.453125 1106.621094 103.640625 C 731.464844 287.738281 576.09375 741.230469 760.1875 1116.820312 Z M 760.1875 1116.820312 " clip-rule="evenodd"/></clipPath><linearGradient x1="279.950284" gradientTransform="matrix(0.123383, 0, 0, -0.123383, 390.935775, -232.52719)" y1="-5270.209076" x2="16861.856065" gradientUnits="userSpaceOnUse" y2="-11248.987008" id="f95e3aac15"><stop stop-opacity="1" stop-color="rgb(7.798767%, 63.899231%, 99.598694%)" offset="0"/><stop stop-opacity="1" stop-color="rgb(7.798767%, 63.899231%, 99.598694%)" offset="0.125"/><stop stop-opacity="1" stop-color="rgb(7.798767%, 63.899231%, 99.598694%)" offset="0.140625"/><stop stop-opacity="1" stop-color="rgb(7.798767%, 63.899231%, 99.598694%)" offset="0.148438"/><stop stop-opacity="1" stop-color="rgb(7.893372%, 63.609314%, 99.362183%)" offset="0.152344"/><stop stop-opacity="1" stop-color="rgb(7.987976%, 63.319397%, 99.127197%)" offset="0.15625"/><stop stop-opacity="1" stop-color="rgb(8.123779%, 62.901306%, 98.786926%)" offset="0.160156"/><stop stop-opacity="1" stop-color="rgb(8.261108%, 62.484741%, 98.448181%)" offset="0.164062"/><stop stop-opacity="1" stop-color="rgb(8.396912%, 62.06665%, 98.10791%)" offset="0.167969"/><stop stop-opacity="1" stop-color="rgb(8.534241%, 61.650085%, 97.769165%)" offset="0.171875"/><stop stop-opacity="1" stop-color="rgb(8.670044%, 61.231995%, 97.428894%)" offset="0.175781"/><stop stop-opacity="1" stop-color="rgb(8.807373%, 60.81543%, 97.090149%)" offset="0.179687"/><stop stop-opacity="1" stop-color="rgb(8.943176%, 60.397339%, 96.749878%)" offset="0.183594"/><stop stop-opacity="1" stop-color="rgb(9.078979%, 59.980774%, 96.411133%)" offset="0.1875"/><stop stop-opacity="1" stop-color="rgb(9.214783%, 59.562683%, 96.070862%)" offset="0.191406"/><stop stop-opacity="1" stop-color="rgb(9.352112%, 59.146118%, 95.732117%)" offset="0.195312"/><stop stop-opacity="1" stop-color="rgb(9.487915%, 58.728027%, 95.391846%)" offset="0.199219"/><stop stop-opacity="1" stop-color="rgb(9.625244%, 58.311462%, 95.053101%)" offset="0.203125"/><stop stop-opacity="1" stop-color="rgb(9.761047%, 57.893372%, 94.71283%)" offset="0.207031"/><stop stop-opacity="1" stop-color="rgb(9.898376%, 57.476807%, 94.374084%)" offset="0.210937"/><stop stop-opacity="1" stop-color="rgb(10.03418%, 57.058716%, 94.033813%)" offset="0.214844"/><stop stop-opacity="1" stop-color="rgb(10.169983%, 56.642151%, 93.695068%)" offset="0.21875"/><stop stop-opacity="1" stop-color="rgb(10.305786%, 56.22406%, 93.354797%)" offset="0.222656"/><stop stop-opacity="1" stop-color="rgb(10.443115%, 55.807495%, 93.016052%)" offset="0.226562"/><stop stop-opacity="1" stop-color="rgb(10.578918%, 55.389404%, 92.675781%)" offset="0.230469"/><stop stop-opacity="1" stop-color="rgb(10.716248%, 54.972839%, 92.33551%)" offset="0.234375"/><stop stop-opacity="1" stop-color="rgb(10.852051%, 54.554749%, 91.995239%)" offset="0.238281"/><stop stop-opacity="1" stop-color="rgb(10.98938%, 54.138184%, 91.656494%)" offset="0.242187"/><stop stop-opacity="1" stop-color="rgb(11.125183%, 53.721619%, 91.316223%)" offset="0.246094"/><stop stop-opacity="1" stop-color="rgb(11.260986%, 53.305054%, 90.977478%)" offset="0.25"/><stop stop-opacity="1" stop-color="rgb(11.39679%, 52.886963%, 90.637207%)" offset="0.253906"/><stop stop-opacity="1" stop-color="rgb(11.534119%, 52.470398%, 90.298462%)" offset="0.257812"/><stop stop-opacity="1" stop-color="rgb(11.669922%, 52.052307%, 89.958191%)" offset="0.261719"/><stop stop-opacity="1" stop-color="rgb(11.807251%, 51.635742%, 89.619446%)" offset="0.265625"/><stop stop-opacity="1" stop-color="rgb(11.943054%, 51.217651%, 89.279175%)" offset="0.269531"/><stop stop-opacity="1" stop-color="rgb(12.080383%, 50.801086%, 88.94043%)" offset="0.273437"/><stop stop-opacity="1" stop-color="rgb(12.216187%, 50.382996%, 88.600159%)" offset="0.277344"/><stop stop-opacity="1" stop-color="rgb(12.35199%, 49.966431%, 88.261414%)" offset="0.28125"/><stop stop-opacity="1" stop-color="rgb(12.487793%, 49.54834%, 87.921143%)" offset="0.285156"/><stop stop-opacity="1" stop-color="rgb(12.625122%, 49.131775%, 87.582397%)" offset="0.289062"/><stop stop-opacity="1" stop-color="rgb(12.760925%, 48.713684%, 87.242126%)" offset="0.292969"/><stop stop-opacity="1" stop-color="rgb(12.898254%, 48.297119%, 86.903381%)" offset="0.296875"/><stop stop-opacity="1" stop-color="rgb(13.034058%, 47.879028%, 86.56311%)" offset="0.300781"/><stop stop-opacity="1" stop-color="rgb(13.171387%, 47.462463%, 86.224365%)" offset="0.304687"/><stop stop-opacity="1" stop-color="rgb(13.30719%, 47.044373%, 85.884094%)" offset="0.308594"/><stop stop-opacity="1" stop-color="rgb(13.442993%, 46.627808%, 85.545349%)" offset="0.3125"/><stop stop-opacity="1" stop-color="rgb(13.578796%, 46.209717%, 85.205078%)" offset="0.316406"/><stop stop-opacity="1" stop-color="rgb(13.716125%, 45.793152%, 84.866333%)" offset="0.320312"/><stop stop-opacity="1" stop-color="rgb(13.851929%, 45.375061%, 84.526062%)" offset="0.324219"/><stop stop-opacity="1" stop-color="rgb(13.989258%, 44.958496%, 84.187317%)" offset="0.328125"/><stop stop-opacity="1" stop-color="rgb(14.125061%, 44.540405%, 83.847046%)" offset="0.332031"/><stop stop-opacity="1" stop-color="rgb(14.26239%, 44.12384%, 83.506775%)" offset="0.335937"/><stop stop-opacity="1" stop-color="rgb(14.398193%, 43.70575%, 83.166504%)" offset="0.339844"/><stop stop-opacity="1" stop-color="rgb(14.533997%, 43.289185%, 82.827759%)" offset="0.34375"/><stop stop-opacity="1" stop-color="rgb(14.6698%, 42.871094%, 82.487488%)" offset="0.347656"/><stop stop-opacity="1" stop-color="rgb(14.807129%, 42.454529%, 82.148743%)" offset="0.351562"/><stop stop-opacity="1" stop-color="rgb(14.942932%, 42.036438%, 81.808472%)" offset="0.355469"/><stop stop-opacity="1" stop-color="rgb(15.080261%, 41.619873%, 81.469727%)" offset="0.359375"/><stop stop-opacity="1" stop-color="rgb(15.216064%, 41.201782%, 81.129456%)" offset="0.363281"/><stop stop-opacity="1" stop-color="rgb(15.353394%, 40.785217%, 80.79071%)" offset="0.367187"/><stop stop-opacity="1" stop-color="rgb(15.489197%, 40.367126%, 80.450439%)" offset="0.371094"/><stop stop-opacity="1" stop-color="rgb(15.625%, 39.950562%, 80.111694%)" offset="0.375"/><stop stop-opacity="1" stop-color="rgb(15.760803%, 39.532471%, 79.771423%)" offset="0.378906"/><stop stop-opacity="1" stop-color="rgb(15.898132%, 39.115906%, 79.432678%)" offset="0.382812"/><stop stop-opacity="1" stop-color="rgb(16.033936%, 38.697815%, 79.092407%)" offset="0.386719"/><stop stop-opacity="1" stop-color="rgb(16.171265%, 38.28125%, 78.753662%)" offset="0.390625"/><stop stop-opacity="1" stop-color="rgb(16.307068%, 37.863159%, 78.413391%)" offset="0.394531"/><stop stop-opacity="1" stop-color="rgb(16.444397%, 37.446594%, 78.074646%)" offset="0.398437"/><stop stop-opacity="1" stop-color="rgb(16.5802%, 37.028503%, 77.734375%)" offset="0.402344"/><stop stop-opacity="1" stop-color="rgb(16.716003%, 36.611938%, 77.39563%)" offset="0.40625"/><stop stop-opacity="1" stop-color="rgb(16.851807%, 36.193848%, 77.055359%)" offset="0.410156"/><stop stop-opacity="1" stop-color="rgb(16.989136%, 35.777283%, 76.716614%)" offset="0.414062"/><stop stop-opacity="1" stop-color="rgb(17.124939%, 35.359192%, 76.376343%)" offset="0.417969"/><stop stop-opacity="1" stop-color="rgb(17.262268%, 34.942627%, 76.037598%)" offset="0.421875"/><stop stop-opacity="1" stop-color="rgb(17.398071%, 34.526062%, 75.697327%)" offset="0.425781"/><stop stop-opacity="1" stop-color="rgb(17.5354%, 34.109497%, 75.358582%)" offset="0.429687"/><stop stop-opacity="1" stop-color="rgb(17.671204%, 33.691406%, 75.018311%)" offset="0.433594"/><stop stop-opacity="1" stop-color="rgb(17.807007%, 33.274841%, 74.679565%)" offset="0.4375"/><stop stop-opacity="1" stop-color="rgb(17.94281%, 32.85675%, 74.339294%)" offset="0.441406"/><stop stop-opacity="1" stop-color="rgb(18.080139%, 32.440186%, 73.999023%)" offset="0.445312"/><stop stop-opacity="1" stop-color="rgb(18.215942%, 32.022095%, 73.658752%)" offset="0.449219"/><stop stop-opacity="1" stop-color="rgb(18.353271%, 31.60553%, 73.320007%)" offset="0.453125"/><stop stop-opacity="1" stop-color="rgb(18.489075%, 31.187439%, 72.979736%)" offset="0.457031"/><stop stop-opacity="1" stop-color="rgb(18.626404%, 30.770874%, 72.640991%)" offset="0.460937"/><stop stop-opacity="1" stop-color="rgb(18.762207%, 30.352783%, 72.30072%)" offset="0.464844"/><stop stop-opacity="1" stop-color="rgb(18.89801%, 29.936218%, 71.961975%)" offset="0.46875"/><stop stop-opacity="1" stop-color="rgb(19.033813%, 29.518127%, 71.621704%)" offset="0.472656"/><stop stop-opacity="1" stop-color="rgb(19.171143%, 29.101562%, 71.282959%)" offset="0.476562"/><stop stop-opacity="1" stop-color="rgb(19.306946%, 28.683472%, 70.942688%)" offset="0.480469"/><stop stop-opacity="1" stop-color="rgb(19.444275%, 28.266907%, 70.603943%)" offset="0.484375"/><stop stop-opacity="1" stop-color="rgb(19.580078%, 27.848816%, 70.263672%)" offset="0.488281"/><stop stop-opacity="1" stop-color="rgb(19.715881%, 27.432251%, 69.924927%)" offset="0.492187"/><stop stop-opacity="1" stop-color="rgb(19.851685%, 27.01416%, 69.584656%)" offset="0.496094"/><stop stop-opacity="1" stop-color="rgb(19.989014%, 26.597595%, 69.245911%)" offset="0.5"/><stop stop-opacity="1" stop-color="rgb(20.124817%, 26.179504%, 68.90564%)" offset="0.503906"/><stop stop-opacity="1" stop-color="rgb(20.262146%, 25.762939%, 68.566895%)" offset="0.507812"/><stop stop-opacity="1" stop-color="rgb(20.397949%, 25.344849%, 68.226624%)" offset="0.511719"/><stop stop-opacity="1" stop-color="rgb(20.535278%, 24.928284%, 67.887878%)" offset="0.515625"/><stop stop-opacity="1" stop-color="rgb(20.671082%, 24.510193%, 67.547607%)" offset="0.519531"/><stop stop-opacity="1" stop-color="rgb(20.806885%, 24.093628%, 67.208862%)" offset="0.523437"/><stop stop-opacity="1" stop-color="rgb(20.942688%, 23.675537%, 66.868591%)" offset="0.527344"/><stop stop-opacity="1" stop-color="rgb(21.080017%, 23.258972%, 66.529846%)" offset="0.53125"/><stop stop-opacity="1" stop-color="rgb(21.21582%, 22.840881%, 66.189575%)" offset="0.535156"/><stop stop-opacity="1" stop-color="rgb(21.353149%, 22.424316%, 65.85083%)" offset="0.539062"/><stop stop-opacity="1" stop-color="rgb(21.488953%, 22.006226%, 65.510559%)" offset="0.542969"/><stop stop-opacity="1" stop-color="rgb(21.626282%, 21.589661%, 65.170288%)" offset="0.546875"/><stop stop-opacity="1" stop-color="rgb(21.762085%, 21.17157%, 64.830017%)" offset="0.550781"/><stop stop-opacity="1" stop-color="rgb(21.897888%, 20.755005%, 64.491272%)" offset="0.554688"/><stop stop-opacity="1" stop-color="rgb(22.033691%, 20.336914%, 64.151001%)" offset="0.558594"/><stop stop-opacity="1" stop-color="rgb(22.171021%, 19.920349%, 63.812256%)" offset="0.5625"/><stop stop-opacity="1" stop-color="rgb(22.306824%, 19.502258%, 63.471985%)" offset="0.566406"/><stop stop-opacity="1" stop-color="rgb(22.444153%, 19.085693%, 63.13324%)" offset="0.570312"/><stop stop-opacity="1" stop-color="rgb(22.579956%, 18.667603%, 62.792969%)" offset="0.574219"/><stop stop-opacity="1" stop-color="rgb(22.717285%, 18.251038%, 62.454224%)" offset="0.578125"/><stop stop-opacity="1" stop-color="rgb(22.853088%, 17.832947%, 62.113953%)" offset="0.582031"/><stop stop-opacity="1" stop-color="rgb(22.988892%, 17.416382%, 61.775208%)" offset="0.585937"/><stop stop-opacity="1" stop-color="rgb(23.124695%, 16.998291%, 61.434937%)" offset="0.589844"/><stop stop-opacity="1" stop-color="rgb(23.262024%, 16.581726%, 61.096191%)" offset="0.59375"/><stop stop-opacity="1" stop-color="rgb(23.397827%, 16.163635%, 60.75592%)" offset="0.597656"/><stop stop-opacity="1" stop-color="rgb(23.535156%, 15.74707%, 60.417175%)" offset="0.601562"/><stop stop-opacity="1" stop-color="rgb(23.670959%, 15.328979%, 60.076904%)" offset="0.605469"/><stop stop-opacity="1" stop-color="rgb(23.808289%, 14.912415%, 59.738159%)" offset="0.609375"/><stop stop-opacity="1" stop-color="rgb(23.944092%, 14.49585%, 59.397888%)" offset="0.613281"/><stop stop-opacity="1" stop-color="rgb(24.079895%, 14.079285%, 59.059143%)" offset="0.617188"/><stop stop-opacity="1" stop-color="rgb(24.215698%, 13.661194%, 58.718872%)" offset="0.621094"/><stop stop-opacity="1" stop-color="rgb(24.353027%, 13.244629%, 58.380127%)" offset="0.625"/><stop stop-opacity="1" stop-color="rgb(24.488831%, 12.826538%, 58.039856%)" offset="0.628906"/><stop stop-opacity="1" stop-color="rgb(24.62616%, 12.409973%, 57.701111%)" offset="0.632812"/><stop stop-opacity="1" stop-color="rgb(24.761963%, 11.991882%, 57.36084%)" offset="0.636719"/><stop stop-opacity="1" stop-color="rgb(24.899292%, 11.575317%, 57.022095%)" offset="0.640625"/><stop stop-opacity="1" stop-color="rgb(25.035095%, 11.157227%, 56.681824%)" offset="0.644531"/><stop stop-opacity="1" stop-color="rgb(25.170898%, 10.740662%, 56.343079%)" offset="0.648437"/><stop stop-opacity="1" stop-color="rgb(25.306702%, 10.322571%, 56.002808%)" offset="0.652344"/><stop stop-opacity="1" stop-color="rgb(25.444031%, 9.906006%, 55.662537%)" offset="0.65625"/><stop stop-opacity="1" stop-color="rgb(25.579834%, 9.487915%, 55.322266%)" offset="0.660156"/><stop stop-opacity="1" stop-color="rgb(25.717163%, 9.07135%, 54.983521%)" offset="0.664062"/><stop stop-opacity="1" stop-color="rgb(25.852966%, 8.653259%, 54.64325%)" offset="0.667969"/><stop stop-opacity="1" stop-color="rgb(25.990295%, 8.236694%, 54.304504%)" offset="0.671875"/><stop stop-opacity="1" stop-color="rgb(26.126099%, 7.818604%, 53.964233%)" offset="0.675781"/><stop stop-opacity="1" stop-color="rgb(26.261902%, 7.402039%, 53.625488%)" offset="0.679688"/><stop stop-opacity="1" stop-color="rgb(26.397705%, 6.983948%, 53.285217%)" offset="0.683594"/><stop stop-opacity="1" stop-color="rgb(26.535034%, 6.567383%, 52.946472%)" offset="0.6875"/><stop stop-opacity="1" stop-color="rgb(26.670837%, 6.149292%, 52.606201%)" offset="0.691406"/><stop stop-opacity="1" stop-color="rgb(26.808167%, 5.732727%, 52.267456%)" offset="0.695312"/><stop stop-opacity="1" stop-color="rgb(26.94397%, 5.314636%, 51.927185%)" offset="0.699219"/><stop stop-opacity="1" stop-color="rgb(27.081299%, 4.898071%, 51.58844%)" offset="0.703125"/><stop stop-opacity="1" stop-color="rgb(27.217102%, 4.47998%, 51.248169%)" offset="0.707031"/><stop stop-opacity="1" stop-color="rgb(27.352905%, 4.063416%, 50.909424%)" offset="0.710937"/><stop stop-opacity="1" stop-color="rgb(27.488708%, 3.645325%, 50.569153%)" offset="0.714844"/><stop stop-opacity="1" stop-color="rgb(27.626038%, 3.22876%, 50.230408%)" offset="0.71875"/><stop stop-opacity="1" stop-color="rgb(27.713013%, 2.963257%, 50.013733%)" offset="0.722656"/><stop stop-opacity="1" stop-color="rgb(27.799988%, 2.69928%, 49.798584%)" offset="0.726562"/><stop stop-opacity="1" stop-color="rgb(27.799988%, 2.69928%, 49.798584%)" offset="0.734375"/><stop stop-opacity="1" stop-color="rgb(27.799988%, 2.69928%, 49.798584%)" offset="0.747348"/><stop stop-opacity="1" stop-color="rgb(27.799988%, 2.69928%, 49.798584%)" offset="0.75"/><stop stop-opacity="1" stop-color="rgb(27.799988%, 2.69928%, 49.798584%)" offset="1"/></linearGradient></defs><rect x="-288" width="3456" fill="#ffffff" y="-161.999993" height="1943.999916" fill-opacity="1"/><rect x="-288" width="3456" fill="#ffffff" y="-161.999993" height="1943.999916" fill-opacity="1"/><g clip-path="url(#44d3e285c7)"><g clip-path="url(#1f2d957ca3)"><path fill="url(#f95e3aac15)" d="M 576.09375 1620 L 576.09375 0 L 2303.894531 0 L 2303.894531 1620 Z M 576.09375 1620 " fill-rule="nonzero"/></g></g><path fill="#6699ff" d="M 979.539062 182.414062 C 1070.933594 255.964844 1206.285156 323.859375 1384.722656 306.886719 C 1751.171875 272.941406 1838.652344 444.414062 2044.941406 478.796875 L 2139.820312 494.464844 C 2154.179688 529.28125 2165.933594 564.535156 2174.636719 600.222656 C 2139.382812 588.46875 2091.074219 585.425781 2025.792969 600.65625 C 1808.1875 650.269531 1758.570312 410.03125 1483.949219 486.195312 C 1209.332031 562.359375 1003.039062 574.109375 926.875 421.347656 C 903.808594 375.214844 874.214844 341.269531 844.183594 316.027344 C 882.917969 266.410156 928.183594 221.585938 979.539062 182.414062 Z M 760.1875 1116.820312 C 787.171875 1172.09375 820.25 1223.011719 858.113281 1268.277344 C 969.527344 1256.523438 1112.714844 1204.734375 1203.238281 1236.503906 C 1317.699219 1276.542969 1491.351562 1309.1875 1634.535156 1314.84375 C 1745.515625 1319.195312 1819.9375 1390.136719 1847.355469 1421.90625 C 1937.007812 1364.457031 2011.429688 1290.90625 2068.007812 1206.476562 C 1973.132812 1234.328125 1831.253906 1263.488281 1731.589844 1227.367188 C 1569.253906 1168.175781 1516.15625 1095.929688 1374.710938 1103.328125 C 1233.703125 1111.164062 1155.363281 1160.777344 1004.78125 1107.246094 C 908.164062 1072.863281 803.710938 1072.429688 741.476562 1076.347656 C 747.566406 1089.402344 753.660156 1102.894531 760.1875 1116.820312 Z M 2176.8125 957.96875 C 2189 907.046875 2195.960938 854.386719 2197.269531 801.726562 C 2147.21875 804.773438 2044.507812 799.113281 1928.742188 765.167969 C 1779.460938 721.210938 1606.246094 871.796875 1439.996094 783.445312 C 1273.742188 695.097656 1199.757812 736.441406 993.464844 772.566406 C 869.863281 794.328125 757.144531 745.582031 687.074219 702.496094 C 680.109375 768.648438 681.414062 835.671875 692.296875 902.695312 C 707.09375 903.566406 724.9375 905.304688 747.566406 907.917969 C 850.714844 919.234375 986.066406 1030.214844 1138.824219 972.765625 C 1291.585938 915.316406 1434.335938 904 1577.523438 967.105469 C 1720.707031 1030.214844 1859.976562 961.449219 1972.261719 923.148438 C 2046.683594 897.90625 2129.375 931.855469 2176.8125 957.96875 Z M 2176.8125 957.96875 " fill-opacity="0.549" fill-rule="evenodd"/><path fill="#00ccff" d="M 921.21875 1334.863281 C 988.242188 1314.84375 1094 1295.695312 1176.691406 1335.296875 C 1308.125 1398.40625 1306.382812 1434.527344 1464.800781 1436.269531 C 1570.992188 1437.574219 1658.90625 1470.652344 1705.476562 1491.976562 C 1431.289062 1595.558594 1127.074219 1528.535156 921.21875 1334.863281 Z M 2125.457031 1104.636719 C 2158.097656 1034.566406 2180.292969 959.273438 2190.738281 882.242188 C 2178.554688 880.5 2163.757812 877.886719 2145.914062 875.277344 C 2046.683594 860.042969 1920.90625 917.058594 1865.632812 894.425781 C 1810.363281 871.359375 1764.664062 873.535156 1634.96875 896.167969 C 1505.277344 919.234375 1476.550781 901.824219 1333.367188 850.46875 C 1190.179688 799.113281 1087.46875 890.507812 907.726562 894.425781 C 807.628906 896.601562 731.464844 856.5625 683.589844 820.875 C 685.765625 868.75 693.167969 917.058594 704.917969 964.929688 C 754.097656 967.105469 821.121094 974.503906 882.917969 995.832031 C 999.121094 1035.871094 1073.542969 1039.789062 1226.304688 1003.664062 C 1379.066406 967.542969 1548.796875 1018.898438 1630.617188 1057.195312 C 1712.4375 1095.496094 1825.160156 1120.300781 1947.453125 1091.578125 C 2018.394531 1074.605469 2083.242188 1089.402344 2125.457031 1104.636719 Z M 2187.691406 662.890625 C 2182.90625 633.296875 2176.378906 604.136719 2168.109375 574.980469 C 2059.738281 554.523438 1943.539062 586.292969 1847.355469 537.984375 C 1815.585938 522.316406 1794.257812 506.214844 1776.851562 491.417969 C 1639.324219 375.214844 1500.054688 400.457031 1332.929688 430.050781 C 1242.84375 446.15625 1163.199219 460.953125 1087.90625 436.144531 C 1022.1875 414.382812 959.953125 363.027344 896.847656 255.53125 C 873.78125 279.46875 852.019531 304.710938 832.433594 331.257812 C 844.621094 349.972656 859.851562 373.910156 879.003906 404.375 C 968.65625 545.382812 995.207031 612.40625 1212.8125 621.980469 C 1377.757812 629.378906 1522.25 553.652344 1638.015625 558.003906 C 1726.367188 561.488281 1775.546875 625.898438 1855.625 662.457031 C 1999.246094 727.738281 2054.515625 654.1875 2187.691406 662.890625 Z M 2004.46875 278.597656 C 1794.257812 43.582031 1452.617188 -41.285156 1151.011719 83.621094 C 1228.046875 166.746094 1319.875 205.046875 1426.503906 198.082031 C 1485.691406 195.472656 1538.789062 197.210938 1586.660156 203.304688 C 1721.144531 219.84375 1873.03125 316.027344 2004.46875 278.597656 Z M 2004.46875 278.597656 " fill-opacity="0.251" fill-rule="evenodd"/><path fill="#47077f" d="M 2129.375 469.65625 C 2247.753906 1278.71875 1326.839844 1700.445312 814.15625 1209.523438 C 840.269531 1247.820312 870.734375 1284.8125 904.679688 1318.761719 C 1200.191406 1614.269531 1679.796875 1614.269531 1975.308594 1318.761719 C 2205.101562 1089.402344 2256.457031 749.066406 2129.375 469.65625 Z M 2129.375 469.65625 " fill-opacity="0.2" fill-rule="evenodd"/><g fill="#cb6ce6" fill-opacity="1"><g transform="translate(935.742511, 882.05679)"><g><path d="M 215.09375 -123.296875 L 215.09375 -75.53125 C 209.40625 -49.375 196.953125 -29.578125 177.734375 -16.140625 C 158.523438 -2.710938 137.085938 4 113.421875 4 C 83.710938 4 58.40625 -7.117188 37.5 -29.359375 C 16.59375 -51.597656 6.140625 -78.460938 6.140625 -109.953125 C 6.140625 -141.972656 16.367188 -169.015625 36.828125 -191.078125 C 57.285156 -213.140625 82.816406 -224.171875 113.421875 -224.171875 C 149.179688 -224.171875 177.46875 -211.628906 198.28125 -186.546875 L 165.46875 -150.515625 C 153.71875 -169.378906 137.347656 -178.8125 116.359375 -178.8125 C 100.878906 -178.8125 87.664062 -172.09375 76.71875 -158.65625 C 65.78125 -145.226562 60.3125 -128.992188 60.3125 -109.953125 C 60.3125 -91.273438 65.78125 -75.304688 76.71875 -62.046875 C 87.664062 -48.796875 100.878906 -42.171875 116.359375 -42.171875 C 129.171875 -42.171875 140.332031 -46.039062 149.84375 -53.78125 C 159.363281 -61.519531 164.125 -71.789062 164.125 -84.59375 L 113.421875 -84.59375 L 113.421875 -123.296875 Z M 215.09375 -123.296875 "/></g></g></g><g fill="#cb6ce6" fill-opacity="1"><g transform="translate(1156.975308, 882.05679)"><g><path d="M 25.34375 -16.9375 C 12.539062 -30.90625 6.140625 -48.03125 6.140625 -68.3125 C 6.140625 -88.601562 12.539062 -105.773438 25.34375 -119.828125 C 38.15625 -133.878906 54.4375 -140.90625 74.1875 -140.90625 C 92.332031 -140.90625 107.28125 -135.210938 119.03125 -123.828125 L 119.03125 -136.90625 L 166.265625 -136.90625 L 166.265625 0 L 119.5625 0 L 119.5625 -15.484375 L 119.03125 -15.484375 C 107.28125 -2.492188 92.332031 4 74.1875 4 C 54.4375 4 38.15625 -2.976562 25.34375 -16.9375 Z M 65.515625 -91.53125 C 59.378906 -85.488281 56.3125 -77.75 56.3125 -68.3125 C 56.3125 -58.882812 59.242188 -51.191406 65.109375 -45.234375 C 70.984375 -39.273438 78.722656 -36.296875 88.328125 -36.296875 C 97.585938 -36.296875 105.195312 -39.316406 111.15625 -45.359375 C 117.113281 -51.410156 120.09375 -59.0625 120.09375 -68.3125 C 120.09375 -77.75 117.019531 -85.488281 110.875 -91.53125 C 104.738281 -97.582031 97.222656 -100.609375 88.328125 -100.609375 C 79.253906 -100.609375 71.648438 -97.582031 65.515625 -91.53125 Z M 65.515625 -91.53125 "/></g></g></g><g fill="#cb6ce6" fill-opacity="1"><g transform="translate(1339.245496, 882.05679)"><g><path d="M 16.015625 0 L 16.015625 -229.515625 L 63.25 -229.515625 L 63.25 0 Z M 16.015625 0 "/></g></g></g><g fill="#cb6ce6" fill-opacity="1"><g transform="translate(1418.50502, 882.05679)"><g><path d="M 25.34375 -16.9375 C 12.539062 -30.90625 6.140625 -48.03125 6.140625 -68.3125 C 6.140625 -88.601562 12.539062 -105.773438 25.34375 -119.828125 C 38.15625 -133.878906 54.4375 -140.90625 74.1875 -140.90625 C 92.332031 -140.90625 107.28125 -135.210938 119.03125 -123.828125 L 119.03125 -136.90625 L 166.265625 -136.90625 L 166.265625 0 L 119.5625 0 L 119.5625 -15.484375 L 119.03125 -15.484375 C 107.28125 -2.492188 92.332031 4 74.1875 4 C 54.4375 4 38.15625 -2.976562 25.34375 -16.9375 Z M 65.515625 -91.53125 C 59.378906 -85.488281 56.3125 -77.75 56.3125 -68.3125 C 56.3125 -58.882812 59.242188 -51.191406 65.109375 -45.234375 C 70.984375 -39.273438 78.722656 -36.296875 88.328125 -36.296875 C 97.585938 -36.296875 105.195312 -39.316406 111.15625 -45.359375 C 117.113281 -51.410156 120.09375 -59.0625 120.09375 -68.3125 C 120.09375 -77.75 117.019531 -85.488281 110.875 -91.53125 C 104.738281 -97.582031 97.222656 -100.609375 88.328125 -100.609375 C 79.253906 -100.609375 71.648438 -97.582031 65.515625 -91.53125 Z M 65.515625 -91.53125 "/></g></g></g><g fill="#cb6ce6" fill-opacity="1"><g transform="translate(1600.775208, 882.05679)"><g><path d="M 174.53125 0 L 117.421875 0 L 87.265625 -38.703125 L 57.109375 0 L 0 0 L 58.453125 -71.515625 L 8.265625 -136.90625 L 63.515625 -136.90625 L 87.265625 -105.15625 L 111.015625 -136.90625 L 166.265625 -136.90625 L 116.09375 -71.515625 Z M 174.53125 0 "/></g></g></g><g fill="#cb6ce6" fill-opacity="1"><g transform="translate(1775.306225, 882.05679)"><g><path d="M 119.828125 -136.90625 L 174.265625 -136.90625 L 66.71875 69.390625 L 12.28125 69.390625 L 59.515625 -21.34375 L -5.34375 -136.90625 L 49.109375 -136.90625 L 87.265625 -66.71875 Z M 119.828125 -136.90625 "/></g></g></g></svg>